<svg width="24" height="24" viewBox="0 0 24 24" fill="none" xmlns="http://www.w3.org/2000/svg">
<path d="M14.737 2.66605H8.08401C7.08403 2.6621 6.12238 3.05042 5.40553 3.74763C4.68869 4.44484 4.27382 5.39535 4.25001 6.39505V17.108C4.2388 17.6182 4.32975 18.1255 4.51749 18.6C4.70524 19.0745 4.98598 19.5067 5.34322 19.8711C5.70045 20.2355 6.12696 20.5248 6.59765 20.722C7.06834 20.9191 7.5737 21.0201 8.08401 21.019H16.073C17.0804 20.9781 18.0325 20.5473 18.7283 19.8175C19.4241 19.0878 19.8091 18.1163 19.802 17.108V7.94205L14.737 2.66605Z" stroke="#323C45" stroke-width="1.5" stroke-miterlimit="10" stroke-linecap="round" stroke-linejoin="round"/>
<path d="M14.474 2.65405V5.56305C14.4737 6.24485 14.744 6.89891 15.2254 7.38167C15.7069 7.86444 16.3602 8.13646 17.042 8.13805C18.359 8.13805 19.706 8.13805 19.797 8.13805" stroke="#323C45" stroke-width="1.5" stroke-miterlimit="10" stroke-linecap="round" stroke-linejoin="round"/>
<path d="M14.287 15.462H8.88699" stroke="#9F99A9" stroke-width="1.5" stroke-miterlimit="10" stroke-linecap="round" stroke-linejoin="round"/>
<path d="M12.242 10.5101H8.88602" stroke="#9F99A9" stroke-width="1.5" stroke-miterlimit="10" stroke-linecap="round" stroke-linejoin="round"/>
</svg>
