<svg width="18" height="21" viewBox="0 0 18 21" fill="none" xmlns="http://www.w3.org/2000/svg">
<path d="M8.368 16.854L2.437 20.1C2.20913 20.2182 1.94423 20.2432 1.69828 20.1697C1.45233 20.0962 1.2446 19.9299 1.119 19.706V19.706C1.04402 19.563 1.00329 19.4045 1 19.243L1 4.844C1 2.1 2.876 1 5.577 1H11.92C14.538 1 16.5 2.025 16.5 4.661V19.243C16.5 19.5026 16.3969 19.7517 16.2133 19.9353C16.0297 20.1189 15.7806 20.222 15.521 20.222C15.3553 20.2194 15.1924 20.1787 15.045 20.103L9.073 16.854C8.96473 16.7954 8.84359 16.7648 8.7205 16.7648C8.59741 16.7648 8.47627 16.7954 8.368 16.854Z" stroke="#323C45" stroke-width="1.5" stroke-miterlimit="10" stroke-linecap="round" stroke-linejoin="round"/>
<path opacity="0.4" d="M5.07401 7.54504H12.374" stroke="#200E32" stroke-width="1.5" stroke-miterlimit="10" stroke-linecap="round" stroke-linejoin="round"/>
</svg>
