<svg width="15" height="18" viewBox="0 0 15 18" fill="none" xmlns="http://www.w3.org/2000/svg">
<path d="M0.702433 10.7578C0.314335 10.7578 -5.72205e-06 10.4432 -5.72205e-06 10.0547V2.8125C-5.72205e-06 1.26176 1.26052 0 2.80975 0H11.5902C13.1395 0 14.4 1.26176 14.4 2.8125V15.1875C14.4 16.7382 13.1395 18 11.5902 18H2.80975C1.26052 18 -5.72205e-06 16.7382 -5.72205e-06 15.1875V13.5703C-5.72205e-06 13.1818 0.314335 12.8672 0.702433 12.8672H2.80975V12.5156C2.80975 12.1271 3.12409 11.8125 3.51219 11.8125C3.90029 11.8125 4.21463 12.1271 4.21463 12.5156V12.8672H5.26829V12.5156C5.26829 12.1271 5.58263 11.8125 5.97073 11.8125C6.35882 11.8125 6.67316 12.1271 6.67316 12.5156V12.8672H12.9951V9.70312H11.5551V10.0547C11.5551 10.4432 11.2408 10.7578 10.8527 10.7578C10.4646 10.7578 10.1502 10.4432 10.1502 10.0547V9.70312H9.09658V10.0547C9.09658 10.4432 8.78224 10.7578 8.39414 10.7578C8.00604 10.7578 7.6917 10.4432 7.6917 10.0547V9.70312H4.21463V10.0547C4.21463 10.4432 3.90029 10.7578 3.51219 10.7578C3.12409 10.7578 2.80975 10.4432 2.80975 10.0547V9.70312H1.40487V10.0547C1.40487 10.4432 1.09053 10.7578 0.702433 10.7578ZM6.67316 14.2734V14.625C6.67316 15.0135 6.35882 15.3281 5.97073 15.3281C5.58263 15.3281 5.26829 15.0135 5.26829 14.625V14.2734H4.21463V14.625C4.21463 15.0135 3.90029 15.3281 3.51219 15.3281C3.12409 15.3281 2.80975 15.0135 2.80975 14.625V14.2734H1.40487V15.1875C1.40487 15.963 2.03496 16.5938 2.80975 16.5938H11.5902C12.365 16.5938 12.9951 15.963 12.9951 15.1875V14.2734H6.67316ZM12.9951 2.8125C12.9951 2.03695 12.365 1.40625 11.5902 1.40625H2.80975C2.03496 1.40625 1.40487 2.03695 1.40487 2.8125V3.69141H2.80975V3.33984C2.80975 2.95137 3.12409 2.63672 3.51219 2.63672C3.90029 2.63672 4.21463 2.95137 4.21463 3.33984V3.69141H5.26829V3.33984C5.26829 2.95137 5.58263 2.63672 5.97073 2.63672C6.35882 2.63672 6.67316 2.95137 6.67316 3.33984V3.69141H10.1502V3.33984C10.1502 2.95137 10.4646 2.63672 10.8527 2.63672C11.2408 2.63672 11.5551 2.95137 11.5551 3.33984V3.69141H12.9951V2.8125ZM2.80975 8.29688V7.94531C2.80975 7.55684 3.12409 7.24219 3.51219 7.24219C3.90029 7.24219 4.21463 7.55684 4.21463 7.94531V8.29688H7.6917V7.94531C7.6917 7.55684 8.00604 7.24219 8.39414 7.24219C8.78224 7.24219 9.09658 7.55684 9.09658 7.94531V8.29688H10.1502V7.94531C10.1502 7.55684 10.4646 7.24219 10.8527 7.24219C11.2408 7.24219 11.5551 7.55684 11.5551 7.94531V8.29688H12.9951V5.09766H11.5551V5.44922C11.5551 5.8377 11.2408 6.15234 10.8527 6.15234C10.4646 6.15234 10.1502 5.8377 10.1502 5.44922V5.09766H6.67316V5.44922C6.67316 5.8377 6.35882 6.15234 5.97073 6.15234C5.58263 6.15234 5.26829 5.8377 5.26829 5.44922V5.09766H4.21463V5.44922C4.21463 5.8377 3.90029 6.15234 3.51219 6.15234C3.12409 6.15234 2.80975 5.8377 2.80975 5.44922V5.09766H1.40487V8.29688H2.80975Z" fill="#323C45"/>
</svg>
