<svg width="16" height="18" viewBox="0 0 16 18" fill="none" xmlns="http://www.w3.org/2000/svg">
<path d="M7.91016 13.7812H4.21875V3.51562C4.21875 3.12715 3.9041 2.8125 3.51562 2.8125C3.12715 2.8125 2.8125 3.12715 2.8125 3.51562V13.7812H2.10938C1.86293 13.7812 1.62633 13.8241 1.40625 13.9022V2.10938C1.40625 1.7216 1.7216 1.40625 2.10938 1.40625H13.7461V8.01562C13.7461 8.4041 14.0607 8.71875 14.4492 8.71875C14.8377 8.71875 15.1523 8.4041 15.1523 8.01562V0.703125C15.1523 0.314648 14.8377 0 14.4492 0H2.10938C0.946406 0 0 0.946406 0 2.10938V15.8906C0 17.0536 0.946406 18 2.10938 18H6.36328C6.75176 18 7.06641 17.6854 7.06641 17.2969C7.06641 16.9084 6.75176 16.5938 6.36328 16.5938H2.10938C1.7216 16.5938 1.40625 16.2784 1.40625 15.8906C1.40625 15.5029 1.7216 15.1875 2.10938 15.1875H7.91016C8.29863 15.1875 8.61328 14.8729 8.61328 14.4844C8.61328 14.0959 8.29863 13.7812 7.91016 13.7812Z" fill="#323C45"/>
</svg>
