<svg width="33" height="40" viewBox="0 0 33 40" fill="none" xmlns="http://www.w3.org/2000/svg">
<path d="M30.8134 0H3.56422C2.35858 0 1.37842 0.989062 1.37842 2.20391V4.57891H0.77483C0.347124 4.57891 0 4.92891 0 5.36016V9.18594C0 9.61719 0.347124 9.96719 0.77483 9.96719H1.37842V13.0641H0.77483C0.347124 13.0641 0 13.4141 0 13.8453V17.6711C0 18.1023 0.347124 18.4523 0.77483 18.4523H1.37842V21.5492H0.77483C0.347124 21.5492 0 21.8992 0 22.3305V26.1562C0 26.5875 0.347124 26.9375 0.77483 26.9375H1.37842V30.0344H0.77483C0.347124 30.0344 0 30.3844 0 30.8156V34.6414C0 35.0727 0.347124 35.4227 0.77483 35.4227H1.37842V37.7977C1.37842 39.0117 2.35858 40 3.56422 40H30.8134C32.0191 40 32.9992 39.0109 32.9992 37.7961V2.20391C33 0.989062 32.0191 0 30.8134 0ZM1.54966 8.40469V6.14141H4.30573V8.40469H1.54966ZM1.54966 16.8891V14.6258H4.30573V16.8891H1.54966ZM1.54966 25.3742V23.1109H4.30573V25.3742H1.54966ZM1.54966 33.8586V31.5953H4.30573V33.8586H1.54966ZM7.49803 38.4375H3.56422C3.21322 38.4375 2.92808 38.15 2.92808 37.7961V35.4211H5.08133C5.50904 35.4211 5.85616 35.0711 5.85616 34.6398V30.8141C5.85616 30.3828 5.50904 30.0328 5.08133 30.0328H2.92808V26.9359H5.08133C5.50904 26.9359 5.85616 26.5859 5.85616 26.1547V22.3289C5.85616 21.8977 5.50904 21.5477 5.08133 21.5477H2.92808V18.4508H5.08133C5.50904 18.4508 5.85616 18.1008 5.85616 17.6695V13.8438C5.85616 13.4125 5.50904 13.0625 5.08133 13.0625H2.92808V9.96562H5.08133C5.50904 9.96562 5.85616 9.61562 5.85616 9.18437V5.36016C5.85616 4.92891 5.50904 4.57891 5.08133 4.57891H2.92808V2.20391C2.92808 1.85 3.21322 1.5625 3.56422 1.5625H7.49803V38.4375ZM31.4503 37.7961C31.4503 38.15 31.1652 38.4375 30.8142 38.4375H9.04769V1.5625H30.8142C31.1652 1.5625 31.4503 1.85 31.4503 2.20391V37.7961Z" fill="#0098DE"/>
<path d="M20.0696 9.20703C15.1921 9.20703 11.2234 13.2086 11.2234 18.1266C11.2234 21.2563 12.8064 24.1023 15.4571 25.7391C15.4578 25.7398 15.4594 25.7406 15.4602 25.7406C16.8448 26.5945 18.4386 27.0461 20.0696 27.0461C21.7007 27.0461 23.296 26.5945 24.6814 25.7398C24.6853 25.7375 24.6892 25.7352 24.693 25.732C27.3375 24.0945 28.9159 21.2523 28.9159 18.1258C28.9159 13.2086 24.9472 9.20703 20.0696 9.20703ZM16.6364 24.6203V20.3969C16.6364 20.1078 16.8696 19.8727 17.1563 19.8727H20.0572C20.0611 19.8727 20.065 19.8727 20.0689 19.8727C20.0727 19.8727 20.0766 19.8727 20.0805 19.8727H22.9822C23.2681 19.8727 23.5014 20.1078 23.5014 20.3969V24.6203C22.4491 25.1859 21.2714 25.4836 20.0689 25.4836C18.8663 25.4836 17.6878 25.1859 16.6364 24.6203ZM17.7909 16.0047C17.7909 14.7336 18.8129 13.6992 20.0689 13.6992C21.3249 13.6992 22.3469 14.7336 22.3469 16.0047C22.3469 17.2719 21.3311 18.3039 20.0805 18.3102H20.0572C18.8067 18.3039 17.7909 17.2719 17.7909 16.0047ZM25.0518 23.5063V20.3969C25.0518 19.2984 24.2064 18.3961 23.1372 18.3156C23.6145 17.6703 23.8973 16.8703 23.8973 16.0047C23.8973 13.8719 22.1803 12.1367 20.0696 12.1367C17.959 12.1367 16.242 13.8719 16.242 16.0047C16.242 16.8703 16.5248 17.6703 17.0021 18.3156C15.9328 18.3953 15.0875 19.2984 15.0875 20.3969V23.5047C13.6184 22.1281 12.7738 20.2031 12.7738 18.1266C12.7738 14.0695 16.0467 10.7695 20.0704 10.7695C24.0941 10.7695 27.367 14.0695 27.367 18.1266C27.3662 20.2039 26.5209 22.1297 25.0518 23.5063Z" fill="#0098DE"/>
<path d="M28.141 29.3867H11.9982C11.5705 29.3867 11.2234 29.7367 11.2234 30.168C11.2234 30.5992 11.5705 30.9492 11.9982 30.9492H28.141C28.5687 30.9492 28.9159 30.5992 28.9159 30.168C28.9159 29.7367 28.5687 29.3867 28.141 29.3867Z" fill="#0098DE"/>
<path d="M25.0417 33.0367H15.0976C14.6698 33.0367 14.3227 33.3867 14.3227 33.818C14.3227 34.2492 14.6698 34.5992 15.0976 34.5992H25.0417C25.4694 34.5992 25.8165 34.2492 25.8165 33.818C25.8165 33.3867 25.4694 33.0367 25.0417 33.0367Z" fill="#0098DE"/>
</svg>
