<svg width="17" height="18" viewBox="0 0 17 18" fill="none" xmlns="http://www.w3.org/2000/svg">
<path d="M15.3732 11.6719V1.40625H3.56688C3.17345 1.40625 2.8535 1.7216 2.8535 2.10938V3.02344H3.56688C3.96102 3.02344 4.28025 3.33809 4.28025 3.72656C4.28025 4.11504 3.96102 4.42969 3.56688 4.42969H2.14013C1.7467 4.42969 1.42675 4.74504 1.42675 5.13281C1.42675 5.52059 1.7467 5.83594 2.14013 5.83594C2.53427 5.83594 2.8535 6.15059 2.8535 6.53906V7.24219H3.56688C3.96102 7.24219 4.28025 7.55684 4.28025 7.94531C4.28025 8.33379 3.96102 8.64844 3.56688 8.64844H2.14013C1.7467 8.64844 1.42675 8.96379 1.42675 9.35156C1.42675 9.73934 1.7467 10.0547 2.14013 10.0547C2.53427 10.0547 2.8535 10.3693 2.8535 10.7578V11.4609H3.56688C3.96102 11.4609 4.28025 11.7756 4.28025 12.1641C4.28025 12.5525 3.96102 12.8672 3.56688 12.8672H2.14013C1.7467 12.8672 1.42675 13.1825 1.42675 13.5703C1.42675 13.9581 1.7467 14.2734 2.14013 14.2734C2.53427 14.2734 2.8535 14.5881 2.8535 14.9766V15.8906C2.8535 16.2784 3.17345 16.5938 3.56688 16.5938H15.3732V15.1875C15.3732 14.799 15.6925 14.4844 16.0866 14.4844C16.4808 14.4844 16.8 14.799 16.8 15.1875V17.2969C16.8 17.6854 16.4808 18 16.0866 18H3.56688C2.3866 18 1.42675 17.0539 1.42675 15.8906V15.5591C0.596382 15.2691 0 14.4868 0 13.5703C0 12.6538 0.596382 11.8723 1.42675 11.5819V11.3404C0.596382 11.0503 0 10.2681 0 9.35156C0 8.43504 0.596382 7.65352 1.42675 7.36313V7.1216C0.596382 6.83156 0 6.04934 0 5.13281C0 4.21629 0.596382 3.43477 1.42675 3.14438V2.10938C1.42675 0.946055 2.3866 0 3.56688 0H16.0866C16.4808 0 16.8 0.314648 16.8 0.703125V11.6719C16.8 12.0604 16.4808 12.375 16.0866 12.375C15.6925 12.375 15.3732 12.0604 15.3732 11.6719ZM7.5254 8.47547C7.30069 8.14184 7.16943 7.74211 7.16943 7.3125C7.16943 6.14918 8.12927 5.20312 9.30955 5.20312C10.4898 5.20312 11.4497 6.14918 11.4497 7.3125C11.4497 7.74176 11.3184 8.14184 11.0941 8.47512C11.994 8.97047 12.6749 9.82899 12.9103 10.8693C12.9146 10.8851 12.9189 10.9013 12.9224 10.9178C12.9981 11.2774 12.906 11.6473 12.6706 11.9324C12.4384 12.2136 12.0956 12.3746 11.7304 12.3746H6.88907C6.52204 12.3746 6.17855 12.2136 5.94634 11.9327C5.71271 11.6497 5.62176 11.2823 5.69666 10.9241C5.92031 9.85957 6.60943 8.97926 7.5254 8.47547ZM9.30955 8.01562C9.70298 8.01562 10.0229 7.70027 10.0229 7.3125C10.0229 6.92473 9.70298 6.60938 9.30955 6.60938C8.91613 6.60938 8.59618 6.92473 8.59618 7.3125C8.59618 7.70027 8.91613 8.01562 9.30955 8.01562ZM7.15908 10.9688H11.4604C11.1593 10.0593 10.2915 9.42188 9.30991 9.42188C8.32831 9.42188 7.45977 10.0593 7.15908 10.9688Z" fill="#323C45"/>
</svg>
