<svg width="145" height="90" viewBox="0 0 145 90" fill="none" xmlns="http://www.w3.org/2000/svg">
<path d="M0 75.357V74.998C0 73.9413 0.177373 73.0311 0.526748 72.2727C0.881497 71.5092 1.39213 70.9075 2.06938 70.4625C2.74663 70.0176 3.53675 69.694 4.43975 69.4917C5.34275 69.2895 6.39625 69.1884 7.59488 69.1884C9.546 69.1884 11.0617 69.4412 12.1529 69.9519C12.814 69.4513 13.8084 69.2035 15.1414 69.2035C15.5929 69.2035 16.0766 69.2743 16.5926 69.421C17.1086 69.5676 17.5171 69.7294 17.8127 69.9064L17.0549 73.5722C16.5604 73.5014 16.2701 73.4609 16.1949 73.4609C15.8079 73.4609 15.5391 73.5064 15.3832 73.5924C15.2274 73.6783 15.1306 73.8502 15.0876 74.098C15.1199 74.3761 15.136 74.6845 15.136 75.0132V75.3722C15.136 77.4099 14.5017 78.8812 13.2386 79.7863C11.9701 80.6914 10.1372 81.1566 7.73999 81.1768C7.64324 81.2476 7.5895 81.3386 7.5895 81.4397C7.5895 81.556 7.79912 81.6268 8.22375 81.6673C8.64837 81.7026 9.18049 81.7229 9.81474 81.7279C10.4544 81.733 11.1424 81.8038 11.8787 81.9352C12.6151 82.0667 13.3031 82.269 13.9427 82.5268C14.5824 82.7847 15.1145 83.2145 15.5391 83.8162C15.9637 84.4179 16.1734 85.1561 16.1734 86.0359C16.1734 86.4606 16.1035 86.8499 15.9584 87.2089C15.8132 87.5679 15.6412 87.8713 15.4316 88.1342C15.222 88.3921 14.9317 88.6247 14.5555 88.8269C14.1792 89.0292 13.8299 89.1961 13.5074 89.3225C13.1795 89.4489 12.7602 89.5601 12.2442 89.6461C11.7282 89.7371 11.2929 89.8028 10.9381 89.8483C10.5834 89.8938 10.1211 89.9292 9.55137 89.9494C8.98162 89.9697 8.54625 89.9848 8.24525 89.9899C7.94962 89.9949 7.53037 90 6.9875 90C6.02 90 4.75149 89.9697 3.18737 89.914C1.62325 89.8584 0.607375 89.8028 0.134375 89.7522L0.430002 85.8235C2.02638 85.9904 3.59587 86.0713 5.1385 86.0713C6.923 86.0713 8.20762 86.0359 8.987 85.9701C9.76637 85.9044 10.1587 85.7426 10.1587 85.4797C10.1587 85.3432 9.85237 85.242 9.23962 85.1713C8.62687 85.1005 7.8905 85.0145 7.01975 84.9235C6.149 84.8325 5.28362 84.6909 4.41825 84.5038C3.55287 84.3167 2.8165 83.9982 2.20375 83.5431C1.591 83.0881 1.28462 82.5117 1.28462 81.8189C1.28462 81.0302 1.55337 80.4133 2.09625 79.9582C0.709497 78.9874 0 77.4604 0 75.357ZM6.18125 75.3317C6.18125 75.9082 6.2995 76.3228 6.536 76.5655C6.7725 76.8082 7.1165 76.9295 7.568 76.9295C8.50325 76.9295 8.97087 76.3986 8.97087 75.3317V75.0233C8.97087 74.4317 8.858 74.0222 8.63225 73.7845C8.4065 73.5469 8.0625 73.4255 7.60025 73.4255C7.138 73.4255 6.78325 73.5469 6.54137 73.7845C6.2995 74.0222 6.17588 74.4317 6.17588 75.0081V75.3317H6.18125Z" fill="#00866A"/>
<path d="M18.3341 84.1145L18.6136 80.1858C20.9141 80.3931 22.6825 80.4942 23.9134 80.4942C24.682 80.4942 25.2571 80.4436 25.6387 80.3476C26.0204 80.2515 26.2085 80.0644 26.2085 79.7964C26.2085 79.579 26.0687 79.402 25.7892 79.2655C25.5097 79.129 25.1442 79.0178 24.6927 78.9268C24.2412 78.8307 23.7467 78.7346 23.2039 78.6335C22.6664 78.5324 22.1235 78.3706 21.5752 78.1582C21.0324 77.9458 20.5325 77.6829 20.081 77.3644C19.6295 77.0509 19.264 76.6009 18.9845 76.0194C18.705 75.4379 18.5652 74.7604 18.5652 73.9817C18.5652 73.3497 18.662 72.7783 18.8555 72.2727C19.049 71.7671 19.2909 71.3474 19.5811 71.0238C19.8714 70.7002 20.2369 70.417 20.6776 70.1794C21.1184 69.9417 21.5376 69.7597 21.9407 69.6384C22.3439 69.512 22.8007 69.4159 23.3221 69.3502C23.8381 69.2844 24.2627 69.2389 24.596 69.2238C24.9239 69.2086 25.3001 69.1985 25.7194 69.1985C28.0736 69.1985 30.0624 69.3299 31.6802 69.5878L31.3524 73.4407C29.8097 73.2334 28.4875 73.1323 27.391 73.1323C25.5097 73.1323 24.5691 73.375 24.5691 73.8654C24.5691 74.0323 24.6766 74.1688 24.897 74.2851C25.1174 74.4014 25.4076 74.4873 25.7624 74.543C26.1171 74.5986 26.5256 74.6744 26.9825 74.7705C27.4394 74.8666 27.907 74.9677 28.3854 75.0739C28.8637 75.1851 29.3314 75.357 29.7882 75.5947C30.2451 75.8323 30.6536 76.1155 31.0084 76.4391C31.3631 76.7677 31.6534 77.2026 31.8737 77.7537C32.0941 78.3048 32.2016 78.9369 32.2016 79.6498C32.2016 80.1453 32.1479 80.6054 32.035 81.0251C31.9275 81.4448 31.7824 81.8088 31.605 82.1122C31.4276 82.4156 31.2019 82.6937 30.9277 82.9364C30.6536 83.1791 30.3795 83.3813 30.1 83.5431C29.8259 83.7049 29.5034 83.8415 29.1325 83.9578C28.7616 84.074 28.4284 84.16 28.1327 84.2207C27.8371 84.2814 27.4985 84.3319 27.1276 84.3673C26.7514 84.4027 26.445 84.4229 26.2031 84.428C25.9612 84.433 25.6871 84.4381 25.3754 84.4381C22.8222 84.4229 20.468 84.3218 18.3341 84.1145Z" fill="#00866A"/>
<path d="M33.2336 73.6278V69.4816H35.1149V66.3771H40.9951V69.4816H43.9675V73.6278H40.9951V77.8447C40.9951 78.502 41.1403 79.0077 41.4305 79.3666C41.7208 79.7256 42.1454 79.9026 42.6936 79.9026C43.301 79.9026 43.7901 79.8824 44.161 79.8419L44.376 84.0386C43.4838 84.1094 42.7313 84.1499 42.1131 84.1499C39.732 84.1499 37.9744 83.6291 36.8295 82.5875C35.6846 81.5459 35.1095 80.0745 35.1095 78.1784V73.6328H33.2336V73.6278Z" fill="#00866A"/>
<path d="M45.4188 76.7627V76.5908C45.4188 71.6609 48.0149 69.1934 53.2125 69.1934C54.0134 69.1934 55.0185 69.2389 56.2279 69.335C57.4319 69.426 58.2113 69.5221 58.566 69.6131L57.9855 73.5722C56.9374 73.4761 55.9376 73.4306 54.9809 73.4306C54.2445 73.4306 53.6586 73.4761 53.2233 73.5722C52.7879 73.6632 52.4439 73.8452 52.1966 74.1081C51.9494 74.371 51.7881 74.6896 51.7075 75.0638C51.6323 75.4379 51.5893 75.9537 51.5893 76.616V77.0054C51.5893 77.6677 51.6269 78.1885 51.7075 78.5576C51.7828 78.9318 51.9494 79.2504 52.1966 79.5133C52.4439 79.7762 52.7879 79.9532 53.2233 80.0391C53.6586 80.1251 54.2445 80.1706 54.9809 80.1706C56.3676 80.1706 57.3781 80.12 58.0016 80.0139L58.5606 83.9931C58.2059 84.0842 57.4265 84.1802 56.2171 84.2712C55.0078 84.3673 53.9919 84.4128 53.1803 84.4128C50.6486 84.4128 48.719 83.8061 47.4021 82.5875C46.0853 81.3689 45.4188 79.4374 45.4188 76.7627Z" fill="#0098DE"/>
<path d="M59.6088 77.0306V76.5958C59.6088 74.0576 60.3075 72.1918 61.6996 70.9934C63.0918 69.8002 65.0644 69.1985 67.6229 69.1985C70.2459 69.1985 72.2454 69.7799 73.6321 70.9479C75.0189 72.1109 75.7391 73.9868 75.7983 76.5655V78.8661H66.0856C66.3275 79.3616 66.7683 79.7105 67.4079 79.8976C68.0475 80.0846 69.0097 80.1858 70.2997 80.1858C71.896 80.1858 73.5999 80.0492 75.422 79.7813L75.9649 83.7252C75.4489 83.8819 74.476 84.0336 73.057 84.1903C71.638 84.3471 70.434 84.4229 69.4396 84.4229C66.2146 84.4229 63.769 83.8414 62.1081 82.6734C60.4365 81.5105 59.6088 79.6296 59.6088 77.0306ZM65.8491 75.4581H70.1921C70.1814 74.7857 69.9879 74.28 69.6063 73.9413C69.2246 73.6075 68.7086 73.4356 68.0475 73.4356C66.7683 73.4407 66.0373 74.1132 65.8491 75.4581Z" fill="#0098DE"/>
<path d="M77.9536 84.1448V71.0592C79.0985 70.4727 80.4261 70.0125 81.9365 69.6889C83.4469 69.3653 84.9035 69.1985 86.3117 69.1985C88.7789 69.1985 90.6064 69.7243 91.805 70.776C92.9982 71.8277 93.5949 73.3042 93.5949 75.2104V84.1448H87.7146V75.7716C87.7146 75.1093 87.5426 74.5986 87.204 74.2396C86.8654 73.8806 86.3655 73.7036 85.7205 73.7036C85.0594 73.7036 84.4305 73.8149 83.8392 74.0323V84.1448H77.9536Z" fill="#0098DE"/>
<path d="M94.3904 73.6278V69.4816H96.2716V66.3771H102.152V69.4816H105.124V73.6278H102.152V77.8447C102.152 78.502 102.297 79.0077 102.587 79.3666C102.878 79.7256 103.302 79.9026 103.85 79.9026C104.458 79.9026 104.947 79.8824 105.318 79.8419L105.533 84.0386C104.641 84.1094 103.888 84.1499 103.27 84.1499C100.889 84.1499 99.1311 83.6291 97.9863 82.5875C96.8414 81.5459 96.2663 80.0745 96.2663 78.1784V73.6328H94.3904V73.6278Z" fill="#0098DE"/>
<path d="M106.758 84.1448V70.8822C107.607 70.3665 108.661 69.9569 109.929 69.6535C111.198 69.3502 112.434 69.1985 113.644 69.1985C114.944 69.1985 116.342 69.3603 117.836 69.6788L117.008 73.825C116.25 73.7441 115.622 73.6986 115.127 73.6986C114.321 73.6986 113.493 73.7896 112.633 73.9615V84.1398H106.758V84.1448Z" fill="#0098DE"/>
<path d="M118.75 79.9228V79.2301C118.75 77.87 119.244 76.8284 120.239 76.1003C121.228 75.3772 122.604 75.0132 124.367 75.0132C125.458 75.0132 126.662 75.261 127.984 75.7514V75.1194C127.984 74.4924 127.775 74.0576 127.355 73.8149C126.936 73.5722 126.167 73.4457 125.044 73.4457C123.523 73.4457 121.884 73.6379 120.121 74.0222L119.277 69.876C119.852 69.7193 120.878 69.5676 122.357 69.4209C123.84 69.2794 125.162 69.2035 126.329 69.2035C128.817 69.2035 130.693 69.6535 131.962 70.5536C133.23 71.4536 133.859 72.9148 133.859 74.9373V83.4066C132.849 83.7252 131.645 83.978 130.258 84.16C128.871 84.342 127.581 84.433 126.393 84.433C125.582 84.433 124.818 84.3926 124.114 84.3066C123.41 84.2207 122.722 84.074 122.05 83.8617C121.378 83.6493 120.803 83.3763 120.325 83.0426C119.846 82.7088 119.465 82.2791 119.175 81.7482C118.89 81.2122 118.75 80.6054 118.75 79.9228ZM124.926 79.6447C124.926 80.5599 125.571 81.0201 126.861 81.0201C127.215 81.0201 127.586 80.9796 127.984 80.9088V78.7902C127.586 78.5374 127.06 78.411 126.399 78.411C125.926 78.411 125.56 78.5121 125.307 78.7144C125.055 78.9166 124.926 79.1897 124.926 79.5335V79.6447Z" fill="#0098DE"/>
<path d="M136.025 78.9723V63.5253H141.905V78.9217C141.905 79.3161 141.938 79.579 142.002 79.7054C142.067 79.8369 142.212 79.8976 142.432 79.8976C142.443 79.8976 142.728 79.8571 143.292 79.7762L144.05 83.442C143.652 83.619 143.115 83.7808 142.438 83.9274C141.76 84.074 141.115 84.1448 140.497 84.1448C139.922 84.1448 139.428 84.1044 139.008 84.0285C138.589 83.9527 138.181 83.801 137.788 83.5836C137.39 83.3662 137.073 83.0678 136.831 82.6886C136.59 82.3094 136.391 81.8139 136.246 81.192C136.1 80.57 136.025 79.8318 136.025 78.9723Z" fill="#0098DE"/>
<path d="M96.416 25.1297H91.2022C91.3903 26.9398 91.3527 28.7652 91.1055 30.5703H96.416V25.1297Z" fill="#00866A"/>
<path d="M68.6971 21.4133C64.9185 21.4133 61.8547 24.2954 61.8547 27.85C61.8547 31.4045 64.9185 34.2866 68.6971 34.2866C71.4384 34.2866 73.798 32.7647 74.8891 30.5702H72.6585V25.1297H74.8891C73.798 22.9353 71.4384 21.4133 68.6971 21.4133Z" fill="#00866A"/>
<path d="M91.2023 25.1297H74.8892C75.303 25.9589 75.5395 26.8741 75.5395 27.85C75.5395 28.8258 75.303 29.741 74.8892 30.5703H91.1109C91.3582 28.7702 91.3958 26.9398 91.2023 25.1297Z" fill="#00866A"/>
<path d="M96.416 25.1297V30.5703H91.1055C89.7886 40.1317 82.3335 48.879 68.6917 49.1066C54.9801 48.879 47.5142 40.0407 46.2565 30.4186H40.043C41.3276 42.9632 50.8736 54.6836 68.6971 54.987C89.0146 54.6483 98.5821 39.4541 97.405 25.1246H96.416V25.1297Z" fill="#00866A"/>
<path d="M68.6971 5.88045C80.0384 6.07259 87.1119 12.1502 89.9284 19.6891H96.416C93.4114 9.14175 84.1771 0.262926 68.6971 0C50.6801 0.303377 41.1126 12.2817 40 24.9831H46.2081C47.3046 15.1992 54.7866 6.1181 68.6971 5.88045Z" fill="#0098DE"/>
<path d="M72.6585 30.5703H74.8891C75.303 29.741 75.5395 28.8258 75.5395 27.85C75.5395 26.8741 75.303 25.9589 74.8891 25.1297H72.6585V30.5703Z" fill="#00866A"/>
</svg>
