<svg width="18" height="18" viewBox="0 0 18 18" fill="none" xmlns="http://www.w3.org/2000/svg">
<path d="M5.99623 16.8925V14.1285C5.99623 13.4263 6.57245 12.85 7.27471 12.85H9.87668C10.5879 12.85 11.1642 13.4172 11.1642 14.1285V16.9015C11.1642 17.5048 11.6413 17.991 12.2446 18H13.9732C15.6928 18.009 17.0884 16.6224 17.1064 14.9028V7.05188C17.0974 6.37663 16.7733 5.74639 16.2421 5.34124L10.3178 0.614479C9.27346 -0.204826 7.80591 -0.204826 6.77052 0.614479L0.864322 5.34124C0.324121 5.74639 0.00900336 6.38563 0 7.06088V14.9028C0.00900336 16.6224 1.40452 18.009 3.12416 18H4.86181C5.47404 18 5.97823 17.5048 5.97823 16.8925" fill="#323C45"/>
</svg>
