<svg width="15" height="17" viewBox="0 0 15 17" fill="none" xmlns="http://www.w3.org/2000/svg">
<path d="M12.066 11.334C11.7771 11.3257 11.4894 11.3744 11.2193 11.4774C10.9492 11.5804 10.7021 11.7355 10.492 11.934L4.72198 8.60601C4.76873 8.42172 4.79588 8.23301 4.80298 8.04301C4.79588 7.85302 4.76873 7.6643 4.72198 7.48001L10.412 4.18001C10.8177 4.55875 11.3414 4.78619 11.8952 4.82407C12.4489 4.86195 12.9987 4.70795 13.4522 4.38799C13.9057 4.06804 14.2352 3.60164 14.3851 3.06729C14.5351 2.53293 14.4965 1.96322 14.2757 1.45402C14.0549 0.944817 13.6655 0.527199 13.1729 0.271429C12.6804 0.0156597 12.1147 -0.0626504 11.5712 0.0496747C11.0277 0.162 10.5395 0.458105 10.1886 0.888169C9.83781 1.31823 9.64583 1.85601 9.64498 2.41101C9.65199 2.60102 9.67914 2.78974 9.72598 2.97401L4.03598 6.27401C3.58523 5.85851 2.99403 5.62882 2.38098 5.63101C2.06632 5.63206 1.75497 5.69525 1.4648 5.81697C1.17464 5.93868 0.911374 6.11652 0.690133 6.34027C0.468892 6.56402 0.294033 6.82927 0.175596 7.12079C0.0571596 7.41231 -0.00252015 7.72436 -1.58861e-05 8.03901C0.00395971 8.50934 0.144344 8.9684 0.404104 9.36051C0.663864 9.75261 1.03184 10.0609 1.46337 10.248C1.89491 10.4351 2.37147 10.4929 2.83522 10.4144C3.29897 10.336 3.72999 10.1246 4.07598 9.80601L9.80698 13.142C9.75721 13.3117 9.72997 13.4872 9.72598 13.664C9.724 14.1274 9.85962 14.581 10.1156 14.9673C10.3717 15.3536 10.7366 15.6552 11.1642 15.8339C11.5918 16.0126 12.0628 16.0604 12.5175 15.9712C12.9723 15.882 13.3904 15.6599 13.7188 15.3329C14.0471 15.0059 14.2711 14.5888 14.3622 14.1344C14.4534 13.68 14.4076 13.2088 14.2307 12.7805C14.0538 12.3521 13.7538 11.9859 13.3686 11.7282C12.9834 11.4706 12.5304 11.333 12.067 11.333L12.066 11.334Z" fill="#323C45"/>
</svg>
