<svg width="126" height="129" viewBox="0 0 126 129" fill="none" xmlns="http://www.w3.org/2000/svg">
<g clip-path="url(#clip0)">
<path fill-rule="evenodd" clip-rule="evenodd" d="M66.8604 119.022C96.2865 119.022 120.177 121.257 120.177 124.011C120.177 126.764 96.2865 129 66.8604 129C37.4342 129 13.5438 126.764 13.5438 124.011C13.5438 121.257 37.4325 119.022 66.8604 119.022Z" fill="#DDFFF8"/>
<path fill-rule="evenodd" clip-rule="evenodd" d="M53.5665 13.3721C49.9641 5.85687 42.1684 0.650757 33.1428 0.650757C23.0925 0.650757 14.5703 7.10417 11.6587 16.0102C5.15725 16.4003 -0.0642577 21.5084 7.06996e-06 28.1665C0.00536247 28.7946 66.855 28.5969 66.855 28.1665C66.8943 18.0937 63.3651 13.2812 55.2356 13.2812C54.6715 13.2812 54.1163 13.3109 53.5665 13.3721Z" fill="white"/>
<path fill-rule="evenodd" clip-rule="evenodd" d="M88.9139 8.80806C91.4095 3.60544 96.8059 0 103.054 0C110.011 0 115.912 4.46788 117.928 10.6344C122.428 10.9038 126.043 14.441 125.998 19.0506C125.995 19.4844 79.7133 19.348 79.7133 19.0506C79.6865 12.0776 82.1304 8.74508 87.7589 8.74508C88.1498 8.74508 88.5336 8.76607 88.9139 8.80806Z" fill="white"/>
<path d="M93.2714 76.0099H80.6076V41.9813C80.6076 36.2311 75.4022 31.5551 69.0043 31.5551H65.8392C59.4395 31.5551 54.2341 36.2329 54.2341 41.9813V76.0099H41.5739V41.9813C41.5739 29.9596 52.4579 20.1789 65.8392 20.1789H69.0043C74.1276 20.1789 78.8868 21.6134 82.8069 24.0573C89.1245 27.9968 93.2696 34.5622 93.2696 41.9813V76.0099H93.2714Z" fill="#DDFFF8"/>
<path d="M93.2714 77.245H80.6076C79.9114 77.245 79.3473 76.6922 79.3473 76.01V41.9813C79.3473 36.9134 74.7078 32.7884 69.0043 32.7884H65.8392C65.143 32.7884 64.5789 32.2356 64.5789 31.5533C64.5789 30.8711 65.143 30.3183 65.8392 30.3183H69.0043C76.0966 30.3183 81.8679 35.5506 81.8679 41.9795V74.7731H92.0111V41.9813C92.0111 41.299 92.5752 40.7462 93.2714 40.7462C93.9676 40.7462 94.5317 41.299 94.5317 41.9813V76.01C94.5317 76.6922 93.9676 77.245 93.2714 77.245ZM54.2341 77.245H41.5739C40.8777 77.245 40.3136 76.6922 40.3136 76.01V41.9813C40.3136 29.2791 51.7653 18.9439 65.8392 18.9439H69.0043C73.767 18.9439 78.4173 20.1404 82.4535 22.4059C83.0568 22.7453 83.2657 23.4992 82.9212 24.0905C82.5749 24.6835 81.8037 24.8865 81.2021 24.5488C77.5479 22.4968 73.3297 21.414 69.0061 21.414H65.841C53.1559 21.414 42.836 30.6401 42.836 41.9813V74.7749H52.9756V41.9813C52.9756 41.299 53.5397 40.7462 54.2359 40.7462C54.9321 40.7462 55.4962 41.299 55.4962 41.9813V76.01C55.4944 76.6922 54.9303 77.245 54.2341 77.245Z" fill="#00866A"/>
<path d="M103.705 115.253C103.705 119.699 99.6568 123.336 94.7102 123.336H40.1333C35.185 123.336 31.1381 119.697 31.1381 115.253V73.762C31.1381 69.3169 35.1867 65.68 40.1333 65.68H94.7084C99.6568 65.68 103.704 69.3169 103.704 73.762V115.253H103.705Z" fill="white"/>
<path d="M94.7102 124.571H40.1333C34.4781 124.571 29.8778 120.391 29.8778 115.253V91.1962C29.8778 90.5139 30.4419 89.9611 31.1381 89.9611C31.8343 89.9611 32.3984 90.5139 32.3984 91.1962V115.253C32.3984 119.03 35.8687 122.102 40.1333 122.102H94.7084C98.9731 122.102 102.443 119.03 102.443 115.253C102.443 114.571 103.007 114.018 103.704 114.018C104.4 114.018 104.964 114.571 104.964 115.253C104.964 120.391 100.364 124.571 94.7102 124.571ZM103.705 101.741C103.009 101.741 102.445 101.189 102.445 100.506V73.762C102.445 69.9869 98.9749 66.915 94.7102 66.915H40.1333C37.5217 66.915 35.0993 68.0818 33.6533 70.0359C33.2427 70.5887 32.4555 70.7094 31.8932 70.3123C31.3291 69.9117 31.2041 69.1402 31.6111 68.5874C33.5284 65.9931 36.713 64.4449 40.1316 64.4449H94.7066C100.362 64.4449 104.962 68.6241 104.962 73.762V100.506C104.964 101.189 104.4 101.741 103.705 101.741Z" fill="#00866A"/>
<path fill-rule="evenodd" clip-rule="evenodd" d="M67.4209 86.2175C70.9144 86.2175 73.751 89.9332 73.751 94.5095C73.751 99.0858 70.9144 102.803 67.4209 102.803C63.9274 102.803 61.0908 99.0876 61.0908 94.5095C61.0908 89.9332 63.9274 86.2175 67.4209 86.2175Z" fill="#6974FB"/>
</g>
<defs>
<clipPath id="clip0">
<rect width="126" height="129" fill="white"/>
</clipPath>
</defs>
</svg>
