<svg enable-background="new 0 0 178.5 46" viewBox="0 0 178.5 46" xmlns="http://www.w3.org/2000/svg"><g fill="#00866a"><path d="m57.4 21.8v-.3c0-.8.1-1.6.4-2.3.3-.6.7-1.1 1.3-1.5s1.2-.6 1.9-.8c.8-.2 1.7-.3 2.6-.3 1.3-.1 2.5.1 3.7.6.7-.5 1.6-.7 2.4-.6.4 0 .8.1 1.2.2.3.1.7.2 1 .4l-.6 3c-.2 0-.5 0-.7-.1-.2 0-.5 0-.7.1-.1.1-.2.2-.3.4v1.1c.1 1.4-.4 2.8-1.5 3.7-1.3.8-2.9 1.2-4.4 1.1-.1 0-.1.1-.1.2s.2.2.5.2h1.3c.6 0 1.1 0 1.7.2.6.1 1.2.3 1.7.5s1 .6 1.3 1.1c.3.6.5 1.2.5 1.9 0 .3 0 .7-.2 1-.1.3-.3.5-.4.8-.2.2-.4.4-.7.6s-.6.3-.9.4-.6.2-1 .3c-.3 0-.7.1-1 .2-.3 0-.7.1-1.1.1h-2c-.8 0-1.8 0-3.1-.1s-2.1-.1-2.5-.1l.3-3.3c1.3.1 2.6.2 3.8.2 1 0 2.1 0 3.1-.1.7 0 1-.2 1-.4s-.3-.2-.7-.3c-.6 0-1.2-.1-1.8-.2l-2.1-.3c-.6-.1-1.3-.4-1.8-.8-.5-.3-.7-.8-.7-1.4s.2-1.2.7-1.6c-1.4-.7-2.3-2.2-2.1-3.8zm5 0c0 .4.1.7.3 1 .2.2.5.3.8.3.7 0 1.1-.5 1.1-1.4v-.3c0-.4-.1-.8-.3-1.1-.2-.2-.5-.3-.8-.3s-.7.1-.9.3c-.2.3-.3.6-.3 1v.5z"/><path d="m72.3 29.1.2-3.3c1.9.2 3.3.3 4.3.3.5 0 .9 0 1.4-.1.3-.1.5-.3.5-.5s-.1-.3-.3-.4c-.3-.1-.6-.2-.9-.3s-.8-.2-1.2-.3-.9-.2-1.3-.4-.8-.4-1.2-.7-.7-.7-.9-1.1c-.2-.5-.3-1.1-.3-1.7 0-.5.1-.9.2-1.4.1-.4.3-.8.6-1.1.2-.3.5-.6.9-.7.3-.2.7-.3 1-.5s.7-.3 1.1-.3c.3-.1.7-.1 1-.1h.9c1.6 0 3.2.1 4.8.3l-.3 3.2c-1.1-.2-2.1-.3-3.2-.3-1.5 0-2.3.2-2.3.6 0 .2.1.3.3.3.2.1.5.2.7.2.3 0 .7.1 1 .2s.7.2 1.1.3.8.3 1.1.4c.4.2.7.4 1 .7s.6.7.7 1.1c.2.5.3 1.1.3 1.6 0 .4 0 .7-.1 1.1l-.3.9c-.1.3-.3.5-.6.7-.2.2-.4.4-.7.5s-.5.3-.8.3c-.3.1-.5.2-.8.2s-.5.1-.8.1h-1.4c-1.9.4-3.8.5-5.7.2z"/><path d="m84.3 20.4v-3.5h1.5v-2.6h4.7v2.6h2.5v3.5h-2.4v3.5c0 .5.1.9.3 1.3.2.3.6.5 1 .5h1.2l.2 3.5c-.7 0-1.3.1-1.8.1-1.5.1-3.1-.3-4.3-1.3-1-1-1.5-2.3-1.4-3.7v-3.8h-1.5z"/></g><g fill="#0098de"><path d="m94.2 23v-.1c0-4.1 2.1-6.2 6.3-6.2.8 0 1.6 0 2.4.1.6 0 1.3.1 1.9.3l-.5 3.3c-.8-.1-1.6-.1-2.4-.1-.5 0-.9 0-1.4.1-.3.1-.6.2-.8.5-.2.2-.3.5-.4.8 0 .3-.1.8-.1 1.3v.3c0 .4 0 .9.1 1.3.1.6.6 1.1 1.2 1.2.5.1.9.1 1.4.1.8 0 1.6 0 2.4-.1l.4 3.3c-.6.2-1.3.3-1.9.3-.8.1-1.7.1-2.5.1-1.7.1-3.4-.4-4.7-1.5-1-1-1.4-2.8-1.4-5z"/><path d="m105.7 23.2v-.4c-.1-1.7.5-3.4 1.7-4.7 1.4-1.1 3.1-1.6 4.8-1.5 1.8-.1 3.5.4 4.9 1.5 1.2 1.2 1.8 3 1.7 4.7v1.9h-7.9c.2.4.6.7 1.1.8.8.2 1.5.3 2.3.3 1.4 0 2.7-.1 4.1-.3l.4 3.3c-.8.2-1.5.3-2.3.4-1.1.1-2.1.2-2.9.2-2.6 0-4.6-.5-5.9-1.5-1.4-1.1-2.1-2.9-2-4.7zm5-1.3h3.5c0-.5-.2-.9-.5-1.3-.4-.3-.8-.5-1.3-.4-1 0-1.5.6-1.7 1.7z"/><path d="m120.5 29.2v-11c1-.5 2.1-.9 3.2-1.1 1.1-.3 2.3-.4 3.5-.4 2 0 3.5.4 4.4 1.3 1 1 1.5 2.3 1.4 3.7v7.5h-4.7v-7c0-.5-.1-.9-.4-1.3-.3-.3-.7-.5-1.2-.5s-1 .1-1.5.3v8.5z"/><path d="m133.8 20.4v-3.5h1.5v-2.6h4.7v2.6h2.4v3.5h-2.4v3.5c0 .5.1.9.3 1.3.2.3.6.5 1 .5h1.2l.2 3.5c-.7 0-1.3.1-1.8.1-1.5.1-3.1-.3-4.3-1.3-1-1-1.5-2.3-1.4-3.7v-3.8h-1.4z"/><path d="m143.8 29.2v-11.1c.8-.5 1.7-.8 2.6-1 1-.3 2-.4 3-.4 1.1 0 2.3.1 3.4.4l-.7 3.5c-.5-.1-1-.1-1.5-.1-.7 0-1.3.1-2 .2v8.5z"/><path d="m153.5 25.6v-.6c0-1 .4-2 1.2-2.6 1-.7 2.1-1 3.3-.9 1 0 2 .2 2.9.6v-.5c0-.4-.2-.8-.5-1.1-.6-.2-1.3-.4-1.9-.3-1.3 0-2.7.2-4 .5l-.7-3.5c.8-.2 1.7-.3 2.5-.4 1.2-.1 2.3-.2 3.2-.2 1.6-.1 3.2.3 4.6 1.1 1.1.9 1.6 2.3 1.5 3.7v7.1c-.9.3-1.9.5-2.9.6-1 .2-2.1.2-3.1.2-.6 0-1.2 0-1.8-.1s-1.1-.2-1.7-.4c-.5-.2-1-.4-1.4-.7s-.7-.7-.9-1.1-.3-.9-.3-1.4zm5-.2c0 .8.5 1.1 1.6 1.1.3 0 .6 0 .9-.1v-1.8c-.4-.2-.8-.3-1.3-.3-.3 0-.7.1-.9.3s-.3.5-.3.8z"/><path d="m167.5 24.9v-13h4.7v12.9c0 .3 0 .5.1.6s.2.2.3.2c.2 0 .5 0 .7-.1l.6 3c-.4.2-.9.3-1.3.4-.5.1-1.1.2-1.6.2-.4 0-.8 0-1.2-.1-.3-.1-.7-.2-1-.4s-.6-.5-.8-.8c-.2-.4-.4-.8-.5-1.3.1-.5.1-1.1 0-1.6z"/></g><g fill="#00866a"><path d="m45.7 21h-4.2c.2 1.5.1 3.1-.1 4.6h4.3z"/><path d="m23.2 17.9c-3 0-5.4 2.4-5.4 5.4s2.4 5.4 5.4 5.4c2.1 0 4.1-1.2 5-3.1h-1.8v-4.6h1.8c-.9-1.9-2.9-3.1-5-3.1z"/><path d="m41.5 21h-13.3c.7 1.5.7 3.1 0 4.6h13.1c.2-1.5.3-3.1.2-4.6z"/><path d="m45.7 21v4.6h-4.3c-1 8-7.1 15.3-18.1 15.5-11.2-.2-17.2-7.6-18.2-15.6h-5.1c1 10.5 8.7 20.3 23.2 20.5 16.4-.3 24.2-13 23.2-25z"/></g><path d="m23.2 4.9c9.2.2 14.9 5.2 17.2 11.5h5.3c-2.5-8.7-9.9-16.2-22.5-16.4-14.5.3-22.3 10.3-23.2 20.9h5c.9-8.2 7-15.8 18.2-16z" fill="#0098de"/><path d="m26.4 25.6h1.8c.7-1.5.7-3.1 0-4.6h-1.8z" fill="#00866a"/><path d="m173.4 12.3v1.5h-.4v-1.5h-.6v-.4h1.5v.4z" fill="#2d2d2d"/><path d="m175.3 13.6h-.3l-.3-.6-.1-.3v.4.8h-.4v-1.9h.4l.5 1.1.5-1.1h.4v1.9h-.4v-.8-.4l-.1.3z" fill="#2d2d2d"/></svg>