<svg width="24" height="24" viewBox="0 0 24 24" fill="none" xmlns="http://www.w3.org/2000/svg">
<path d="M16.016 7.29305V6.36005C16.016 5.38273 15.6278 4.44543 14.9367 3.75436C14.2456 3.06329 13.3083 2.67505 12.331 2.67505H7.456C6.47885 2.67531 5.54182 3.06367 4.85096 3.75471C4.16011 4.44576 3.772 5.3829 3.772 6.36005V17.49C3.772 18.4672 4.16011 19.4043 4.85096 20.0954C5.54182 20.7864 6.47885 21.1748 7.456 21.175H12.341C13.3155 21.175 14.2501 20.788 14.9393 20.099C15.6284 19.41 16.0157 18.4755 16.016 17.501V16.558" stroke="#9F99A9" stroke-width="1.5" stroke-miterlimit="10" stroke-linecap="round" stroke-linejoin="round"/>
<path d="M21.809 11.925H9.76801" stroke="#323C45" stroke-width="1.5" stroke-miterlimit="10" stroke-linecap="round" stroke-linejoin="round"/>
<path d="M18.881 9.01007L21.809 11.9251L18.881 14.8411" stroke="#323C45" stroke-width="1.5" stroke-miterlimit="10" stroke-linecap="round" stroke-linejoin="round"/>
</svg>
