<svg width="92" height="8" viewBox="0 0 92 8" fill="none" xmlns="http://www.w3.org/2000/svg">
<path d="M0.792614 0.454545H1.73864L3.96307 5.88778H4.03977L6.2642 0.454545H7.21023V7H6.46875V2.02699H6.40483L4.35938 7H3.64347L1.59801 2.02699H1.53409V7H0.792614V0.454545ZM10.1418 7.11506C9.8307 7.11506 9.54838 7.05646 9.29483 6.93928C9.04128 6.81996 8.83993 6.64844 8.69078 6.42472C8.54164 6.19886 8.46706 5.92614 8.46706 5.60653C8.46706 5.32528 8.52246 5.0973 8.63326 4.92259C8.74405 4.74574 8.89213 4.60724 9.0775 4.5071C9.26287 4.40696 9.46742 4.33239 9.69114 4.28338C9.91699 4.23224 10.1439 4.19176 10.3719 4.16193C10.6702 4.12358 10.912 4.09482 11.0974 4.07564C11.2849 4.05433 11.4213 4.01918 11.5065 3.97017C11.5938 3.92116 11.6375 3.83594 11.6375 3.71449V3.68892C11.6375 3.37358 11.5512 3.12855 11.3786 2.95384C11.2082 2.77912 10.9493 2.69176 10.602 2.69176C10.2419 2.69176 9.95961 2.7706 9.75506 2.92827C9.55051 3.08594 9.40669 3.25426 9.3236 3.43324L8.60769 3.17756C8.73553 2.87926 8.90598 2.64702 9.11905 2.48082C9.33425 2.3125 9.56863 2.19531 9.82218 2.12926C10.0779 2.06108 10.3293 2.02699 10.5764 2.02699C10.7341 2.02699 10.9152 2.04616 11.1198 2.08452C11.3264 2.12074 11.5257 2.19638 11.7174 2.31143C11.9113 2.42649 12.0722 2.60014 12.2 2.83239C12.3279 3.06463 12.3918 3.37571 12.3918 3.76562V7H11.6375V6.33523H11.5992C11.548 6.44176 11.4628 6.55575 11.3435 6.6772C11.2242 6.79865 11.0654 6.90199 10.8673 6.98722C10.6691 7.07244 10.4273 7.11506 10.1418 7.11506ZM10.2568 6.4375C10.5551 6.4375 10.8066 6.37891 11.0111 6.26172C11.2178 6.14453 11.3733 5.99325 11.4777 5.80788C11.5843 5.62251 11.6375 5.42756 11.6375 5.22301V4.53267C11.6056 4.57102 11.5352 4.60618 11.4266 4.63814C11.32 4.66797 11.1965 4.6946 11.0558 4.71804C10.9173 4.73935 10.782 4.75852 10.6499 4.77557C10.52 4.79048 10.4145 4.80327 10.3335 4.81392C10.1375 4.83949 9.95428 4.88104 9.78382 4.93857C9.6155 4.99396 9.47914 5.07812 9.37473 5.19105C9.27246 5.30185 9.22132 5.45312 9.22132 5.64489C9.22132 5.90696 9.31827 6.10511 9.51216 6.23935C9.70819 6.37145 9.95641 6.4375 10.2568 6.4375ZM15.6222 7.10227C15.2131 7.10227 14.8519 6.99893 14.5387 6.79226C14.2255 6.58345 13.9805 6.28942 13.8036 5.91016C13.6268 5.52876 13.5384 5.07812 13.5384 4.55824C13.5384 4.04261 13.6268 3.59517 13.8036 3.21591C13.9805 2.83665 14.2266 2.54368 14.5419 2.337C14.8572 2.13033 15.2216 2.02699 15.6349 2.02699C15.9545 2.02699 16.207 2.08026 16.3924 2.18679C16.5799 2.29119 16.7227 2.41051 16.8207 2.54474C16.9208 2.67685 16.9986 2.78551 17.054 2.87074H17.1179V0.454545H17.8722V7H17.1435V6.24574H17.054C16.9986 6.33523 16.9197 6.44815 16.8175 6.58452C16.7152 6.71875 16.5692 6.83913 16.3796 6.94567C16.19 7.05007 15.9375 7.10227 15.6222 7.10227ZM15.7244 6.42472C16.027 6.42472 16.2827 6.34588 16.4915 6.18821C16.7003 6.02841 16.859 5.80788 16.9677 5.52663C17.0763 5.24325 17.1307 4.91619 17.1307 4.54545C17.1307 4.17898 17.0774 3.85831 16.9709 3.58345C16.8643 3.30646 16.7067 3.09126 16.4979 2.93786C16.2891 2.78232 16.0313 2.70455 15.7244 2.70455C15.4048 2.70455 15.1385 2.78658 14.9254 2.95064C14.7145 3.11257 14.5558 3.3331 14.4492 3.61222C14.3448 3.8892 14.2926 4.20028 14.2926 4.54545C14.2926 4.89489 14.3459 5.21236 14.4524 5.49787C14.5611 5.78125 14.7209 6.0071 14.9318 6.17543C15.1449 6.34162 15.4091 6.42472 15.7244 6.42472ZM21.4165 7.10227C20.9435 7.10227 20.5355 6.99787 20.1925 6.78906C19.8516 6.57812 19.5884 6.28409 19.4031 5.90696C19.2198 5.5277 19.1282 5.08665 19.1282 4.58381C19.1282 4.08097 19.2198 3.63778 19.4031 3.25426C19.5884 2.86861 19.8462 2.56818 20.1765 2.35298C20.5089 2.13565 20.8967 2.02699 21.3398 2.02699C21.5955 2.02699 21.848 2.0696 22.0973 2.15483C22.3466 2.24006 22.5735 2.37855 22.7781 2.57031C22.9826 2.75994 23.1456 3.01136 23.267 3.32457C23.3885 3.63778 23.4492 4.02344 23.4492 4.48153V4.80114H19.6651V4.14915H22.6822C22.6822 3.87216 22.6268 3.625 22.516 3.40767C22.4073 3.19034 22.2518 3.01882 22.0494 2.89311C21.8491 2.7674 21.6126 2.70455 21.3398 2.70455C21.0394 2.70455 20.7795 2.77912 20.56 2.92827C20.3427 3.07528 20.1754 3.26705 20.0582 3.50355C19.9411 3.74006 19.8825 3.99361 19.8825 4.2642V4.69886C19.8825 5.0696 19.9464 5.38388 20.0742 5.64169C20.2042 5.89737 20.3842 6.09233 20.6143 6.22656C20.8445 6.35866 21.1119 6.42472 21.4165 6.42472C21.6147 6.42472 21.7937 6.39702 21.9535 6.34162C22.1154 6.28409 22.255 6.19886 22.3722 6.08594C22.4893 5.97088 22.5799 5.82812 22.6438 5.65767L23.3725 5.86222C23.2958 6.10938 23.1669 6.3267 22.9858 6.5142C22.8047 6.69957 22.581 6.84446 22.3146 6.94886C22.0483 7.05114 21.7489 7.10227 21.4165 7.10227ZM28.2401 7L26.7443 2.09091H27.5369L28.598 5.84943H28.6491L29.6974 2.09091H30.5028L31.5384 5.83665H31.5895L32.6506 2.09091H33.4432L31.9474 7H31.206L30.1321 3.22869H30.0554L28.9815 7H28.2401ZM34.4403 7V2.09091H35.1946V7H34.4403ZM34.8239 1.27273C34.6768 1.27273 34.5501 1.22266 34.4435 1.12251C34.3391 1.02237 34.2869 0.901989 34.2869 0.761364C34.2869 0.620739 34.3391 0.500355 34.4435 0.400213C34.5501 0.300071 34.6768 0.25 34.8239 0.25C34.9709 0.25 35.0966 0.300071 35.201 0.400213C35.3075 0.500355 35.3608 0.620739 35.3608 0.761364C35.3608 0.901989 35.3075 1.02237 35.201 1.12251C35.0966 1.22266 34.9709 1.27273 34.8239 1.27273ZM38.711 2.09091V2.73011H36.167V2.09091H38.711ZM36.9085 0.914773H37.6627V5.59375C37.6627 5.80682 37.6936 5.96662 37.7554 6.07315C37.8193 6.17756 37.9003 6.24787 37.9983 6.28409C38.0985 6.31818 38.2039 6.33523 38.3147 6.33523C38.3978 6.33523 38.466 6.33097 38.5193 6.32244C38.5725 6.31179 38.6151 6.30327 38.6471 6.29688L38.8005 6.97443C38.7494 6.99361 38.678 7.01278 38.5864 7.03196C38.4948 7.05327 38.3786 7.06392 38.238 7.06392C38.0249 7.06392 37.8161 7.01811 37.6116 6.92649C37.4092 6.83487 37.2409 6.69531 37.1066 6.50781C36.9745 6.32031 36.9085 6.08381 36.9085 5.7983V0.914773ZM40.7053 4.04688V7H39.9511V0.454545H40.7053V2.85795H40.7693C40.8843 2.6044 41.0569 2.40305 41.287 2.25391C41.5193 2.10263 41.8282 2.02699 42.2139 2.02699C42.5484 2.02699 42.8414 2.09411 43.0928 2.22834C43.3442 2.36044 43.5392 2.56392 43.6776 2.83878C43.8183 3.11151 43.8886 3.45881 43.8886 3.88068V7H43.1343V3.93182C43.1343 3.5419 43.0331 3.24041 42.8307 3.02734C42.6304 2.81214 42.3524 2.70455 41.9965 2.70455C41.7494 2.70455 41.5278 2.75675 41.3318 2.86115C41.1379 2.96555 40.9845 3.1179 40.8715 3.31818C40.7607 3.51847 40.7053 3.76136 40.7053 4.04688ZM59.5331 7V2.09091H60.2874V7H59.5331ZM59.9166 1.27273C59.7696 1.27273 59.6428 1.22266 59.5363 1.12251C59.4319 1.02237 59.3797 0.901989 59.3797 0.761364C59.3797 0.620739 59.4319 0.500355 59.5363 0.400213C59.6428 0.300071 59.7696 0.25 59.9166 0.25C60.0637 0.25 60.1894 0.300071 60.2938 0.400213C60.4003 0.500355 60.4536 0.620739 60.4536 0.761364C60.4536 0.901989 60.4003 1.02237 60.2938 1.12251C60.1894 1.22266 60.0637 1.27273 59.9166 1.27273ZM62.4231 4.04688V7H61.6689V2.09091H62.3975V2.85795H62.4615C62.5765 2.60866 62.7512 2.40838 62.9856 2.2571C63.22 2.10369 63.5225 2.02699 63.8933 2.02699C64.2257 2.02699 64.5165 2.09517 64.7658 2.23153C65.0151 2.36577 65.209 2.57031 65.3475 2.84517C65.486 3.1179 65.5552 3.46307 65.5552 3.88068V7H64.801V3.93182C64.801 3.54616 64.7008 3.24574 64.5005 3.03054C64.3002 2.81321 64.0254 2.70455 63.676 2.70455C63.4352 2.70455 63.22 2.75675 63.0304 2.86115C62.8429 2.96555 62.6948 3.1179 62.5861 3.31818C62.4775 3.51847 62.4231 3.76136 62.4231 4.04688ZM70.3596 0.454545V7H69.567V0.454545H70.3596ZM72.6009 4.04688V7H71.8466V2.09091H72.5753V2.85795H72.6392C72.7543 2.60866 72.929 2.40838 73.1634 2.2571C73.3977 2.10369 73.7003 2.02699 74.071 2.02699C74.4034 2.02699 74.6942 2.09517 74.9435 2.23153C75.1928 2.36577 75.3867 2.57031 75.5252 2.84517C75.6637 3.1179 75.733 3.46307 75.733 3.88068V7H74.9787V3.93182C74.9787 3.54616 74.8786 3.24574 74.6783 3.03054C74.478 2.81321 74.2031 2.70455 73.8537 2.70455C73.6129 2.70455 73.3977 2.75675 73.2081 2.86115C73.0206 2.96555 72.8725 3.1179 72.7638 3.31818C72.6552 3.51847 72.6009 3.76136 72.6009 4.04688ZM78.9649 7.10227C78.5558 7.10227 78.1947 6.99893 77.8815 6.79226C77.5683 6.58345 77.3232 6.28942 77.1464 5.91016C76.9695 5.52876 76.8811 5.07812 76.8811 4.55824C76.8811 4.04261 76.9695 3.59517 77.1464 3.21591C77.3232 2.83665 77.5693 2.54368 77.8847 2.337C78.2 2.13033 78.5644 2.02699 78.9777 2.02699C79.2973 2.02699 79.5498 2.08026 79.7352 2.18679C79.9227 2.29119 80.0654 2.41051 80.1634 2.54474C80.2636 2.67685 80.3414 2.78551 80.3968 2.87074H80.4607V0.454545H81.2149V7H80.4862V6.24574H80.3968C80.3414 6.33523 80.2625 6.44815 80.1602 6.58452C80.058 6.71875 79.912 6.83913 79.7224 6.94567C79.5328 7.05007 79.2803 7.10227 78.9649 7.10227ZM79.0672 6.42472C79.3698 6.42472 79.6254 6.34588 79.8343 6.18821C80.0431 6.02841 80.2018 5.80788 80.3105 5.52663C80.4191 5.24325 80.4735 4.91619 80.4735 4.54545C80.4735 4.17898 80.4202 3.85831 80.3137 3.58345C80.2071 3.30646 80.0494 3.09126 79.8406 2.93786C79.6318 2.78232 79.374 2.70455 79.0672 2.70455C78.7476 2.70455 78.4813 2.78658 78.2682 2.95064C78.0573 3.11257 77.8985 3.3331 77.792 3.61222C77.6876 3.8892 77.6354 4.20028 77.6354 4.54545C77.6354 4.89489 77.6887 5.21236 77.7952 5.49787C77.9039 5.78125 78.0637 6.0071 78.2746 6.17543C78.4877 6.34162 78.7519 6.42472 79.0672 6.42472ZM82.7011 7V2.09091H83.4553V7H82.7011ZM83.0846 1.27273C82.9376 1.27273 82.8108 1.22266 82.7043 1.12251C82.5999 1.02237 82.5477 0.901989 82.5477 0.761364C82.5477 0.620739 82.5999 0.500355 82.7043 0.400213C82.8108 0.300071 82.9376 0.25 83.0846 0.25C83.2316 0.25 83.3573 0.300071 83.4617 0.400213C83.5683 0.500355 83.6215 0.620739 83.6215 0.761364C83.6215 0.901989 83.5683 1.02237 83.4617 1.12251C83.3573 1.22266 83.2316 1.27273 83.0846 1.27273ZM86.2814 7.11506C85.9703 7.11506 85.688 7.05646 85.4345 6.93928C85.1809 6.81996 84.9796 6.64844 84.8304 6.42472C84.6813 6.19886 84.6067 5.92614 84.6067 5.60653C84.6067 5.32528 84.6621 5.0973 84.7729 4.92259C84.8837 4.74574 85.0318 4.60724 85.2172 4.5071C85.4025 4.40696 85.6071 4.33239 85.8308 4.28338C86.0566 4.23224 86.2836 4.19176 86.5115 4.16193C86.8098 4.12358 87.0517 4.09482 87.237 4.07564C87.4245 4.05433 87.5609 4.01918 87.6461 3.97017C87.7335 3.92116 87.7772 3.83594 87.7772 3.71449V3.68892C87.7772 3.37358 87.6909 3.12855 87.5183 2.95384C87.3478 2.77912 87.089 2.69176 86.7417 2.69176C86.3816 2.69176 86.0993 2.7706 85.8947 2.92827C85.6902 3.08594 85.5463 3.25426 85.4632 3.43324L84.7473 3.17756C84.8752 2.87926 85.0456 2.64702 85.2587 2.48082C85.4739 2.3125 85.7083 2.19531 85.9618 2.12926C86.2175 2.06108 86.4689 2.02699 86.7161 2.02699C86.8738 2.02699 87.0549 2.04616 87.2594 2.08452C87.4661 2.12074 87.6653 2.19638 87.8571 2.31143C88.051 2.42649 88.2118 2.60014 88.3397 2.83239C88.4675 3.06463 88.5314 3.37571 88.5314 3.76562V7H87.7772V6.33523H87.7388C87.6877 6.44176 87.6025 6.55575 87.4831 6.6772C87.3638 6.79865 87.2051 6.90199 87.0069 6.98722C86.8088 7.07244 86.5669 7.11506 86.2814 7.11506ZM86.3965 6.4375C86.6948 6.4375 86.9462 6.37891 87.1507 6.26172C87.3574 6.14453 87.513 5.99325 87.6174 5.80788C87.7239 5.62251 87.7772 5.42756 87.7772 5.22301V4.53267C87.7452 4.57102 87.6749 4.60618 87.5662 4.63814C87.4597 4.66797 87.3361 4.6946 87.1955 4.71804C87.057 4.73935 86.9217 4.75852 86.7896 4.77557C86.6596 4.79048 86.5542 4.80327 86.4732 4.81392C86.2772 4.83949 86.0939 4.88104 85.9235 4.93857C85.7551 4.99396 85.6188 5.07812 85.5144 5.19105C85.4121 5.30185 85.361 5.45312 85.361 5.64489C85.361 5.90696 85.4579 6.10511 85.6518 6.23935C85.8478 6.37145 86.0961 6.4375 86.3965 6.4375ZM90.4578 7.05114C90.3002 7.05114 90.1649 6.99467 90.0519 6.88175C89.939 6.76882 89.8825 6.63352 89.8825 6.47585C89.8825 6.31818 89.939 6.18288 90.0519 6.06996C90.1649 5.95703 90.3002 5.90057 90.4578 5.90057C90.6155 5.90057 90.7508 5.95703 90.8637 6.06996C90.9767 6.18288 91.0331 6.31818 91.0331 6.47585C91.0331 6.58026 91.0065 6.67614 90.9532 6.76349C90.9021 6.85085 90.8328 6.92116 90.7455 6.97443C90.6602 7.02557 90.5644 7.05114 90.4578 7.05114Z" fill="black"/>
<path d="M51.7116 7.10227L48.4261 3.81676C48.1641 3.55469 47.9893 3.25 47.902 2.9027C47.8168 2.5554 47.8178 2.21023 47.9052 1.86719C47.9925 1.52202 48.1662 1.22159 48.4261 0.965909C48.6925 0.703835 48.9961 0.530184 49.337 0.444957C49.68 0.357599 50.022 0.357599 50.3629 0.444957C50.706 0.532315 51.0107 0.705966 51.277 0.965909L51.7116 1.38778L52.1463 0.965909C52.4148 0.705966 52.7195 0.532315 53.0604 0.444957C53.4013 0.357599 53.7422 0.357599 54.0831 0.444957C54.4261 0.530184 54.7308 0.703835 54.9972 0.965909C55.2571 1.22159 55.4308 1.52202 55.5181 1.86719C55.6055 2.21023 55.6055 2.5554 55.5181 2.9027C55.4329 3.25 55.2592 3.55469 54.9972 3.81676L51.7116 7.10227Z" fill="#FF0000"/>
</svg>
