<svg width="21" height="19" viewBox="0 0 21 19" fill="none" xmlns="http://www.w3.org/2000/svg">
<path d="M16.268 6.56097L12.002 9.99497C11.6104 10.3025 11.1269 10.4697 10.629 10.4697C10.1311 10.4697 9.6476 10.3025 9.25601 9.99497L4.95401 6.56097" stroke="#9F99A9" stroke-width="1.5" stroke-miterlimit="10" stroke-linecap="round" stroke-linejoin="round"/>
<path d="M5.888 1H15.316C15.9901 1.00738 16.6556 1.1522 17.2719 1.42558C17.8881 1.69897 18.4421 2.09519 18.9 2.59C19.3587 3.08573 19.7126 3.66896 19.9404 4.30474C20.1683 4.94053 20.2654 5.61577 20.226 6.29V12.818C20.2654 13.4922 20.1683 14.1675 19.9404 14.8033C19.7126 15.439 19.3587 16.0223 18.9 16.518C18.4426 17.0123 17.8892 17.4083 17.2737 17.6816C16.6582 17.955 15.9934 18.1001 15.32 18.108H5.888C2.968 18.116 1 15.741 1 12.822V6.294C1 3.375 2.968 1 5.888 1Z" stroke="#323C45" stroke-width="1.5" stroke-miterlimit="10" stroke-linecap="round" stroke-linejoin="round"/>
</svg>
