<svg width="64" height="64" viewBox="0 0 64 64" fill="none" xmlns="http://www.w3.org/2000/svg">
<path d="M2 4C3.10457 4 4 3.10457 4 2C4 0.89543 3.10457 0 2 0C0.89543 0 0 0.89543 0 2C0 3.10457 0.89543 4 2 4Z" fill="#E2DFDF"/>
<path d="M22 4C23.1046 4 24 3.10457 24 2C24 0.89543 23.1046 0 22 0C20.8954 0 20 0.89543 20 2C20 3.10457 20.8954 4 22 4Z" fill="#E2DFDF"/>
<path d="M42 4C43.1046 4 44 3.10457 44 2C44 0.89543 43.1046 0 42 0C40.8954 0 40 0.89543 40 2C40 3.10457 40.8954 4 42 4Z" fill="#E2DFDF"/>
<path d="M62 4C63.1046 4 64 3.10457 64 2C64 0.89543 63.1046 0 62 0C60.8954 0 60 0.89543 60 2C60 3.10457 60.8954 4 62 4Z" fill="#E2DFDF"/>
<path d="M2 24C3.10457 24 4 23.1046 4 22C4 20.8954 3.10457 20 2 20C0.89543 20 0 20.8954 0 22C0 23.1046 0.89543 24 2 24Z" fill="#E2DFDF"/>
<path d="M22 24C23.1046 24 24 23.1046 24 22C24 20.8954 23.1046 20 22 20C20.8954 20 20 20.8954 20 22C20 23.1046 20.8954 24 22 24Z" fill="#00866A"/>
<path d="M42 24C43.1046 24 44 23.1046 44 22C44 20.8954 43.1046 20 42 20C40.8954 20 40 20.8954 40 22C40 23.1046 40.8954 24 42 24Z" fill="#00866A"/>
<path d="M62 24C63.1046 24 64 23.1046 64 22C64 20.8954 63.1046 20 62 20C60.8954 20 60 20.8954 60 22C60 23.1046 60.8954 24 62 24Z" fill="#E2DFDF"/>
<path d="M2 44C3.10457 44 4 43.1046 4 42C4 40.8954 3.10457 40 2 40C0.89543 40 0 40.8954 0 42C0 43.1046 0.89543 44 2 44Z" fill="#E2DFDF"/>
<path d="M22 44C23.1046 44 24 43.1046 24 42C24 40.8954 23.1046 40 22 40C20.8954 40 20 40.8954 20 42C20 43.1046 20.8954 44 22 44Z" fill="#00866A"/>
<path d="M42 44C43.1046 44 44 43.1046 44 42C44 40.8954 43.1046 40 42 40C40.8954 40 40 40.8954 40 42C40 43.1046 40.8954 44 42 44Z" fill="#00866A"/>
<path d="M62 44C63.1046 44 64 43.1046 64 42C64 40.8954 63.1046 40 62 40C60.8954 40 60 40.8954 60 42C60 43.1046 60.8954 44 62 44Z" fill="#E2DFDF"/>
<path d="M2 64C3.10457 64 4 63.1046 4 62C4 60.8954 3.10457 60 2 60C0.89543 60 0 60.8954 0 62C0 63.1046 0.89543 64 2 64Z" fill="#E2DFDF"/>
<path d="M22 64C23.1046 64 24 63.1046 24 62C24 60.8954 23.1046 60 22 60C20.8954 60 20 60.8954 20 62C20 63.1046 20.8954 64 22 64Z" fill="#E2DFDF"/>
<path d="M42 64C43.1046 64 44 63.1046 44 62C44 60.8954 43.1046 60 42 60C40.8954 60 40 60.8954 40 62C40 63.1046 40.8954 64 42 64Z" fill="#E2DFDF"/>
<path d="M62 64C63.1046 64 64 63.1046 64 62C64 60.8954 63.1046 60 62 60C60.8954 60 60 60.8954 60 62C60 63.1046 60.8954 64 62 64Z" fill="#E2DFDF"/>
</svg>
