<svg width="24" height="24" viewBox="0 0 24 24" fill="none" xmlns="http://www.w3.org/2000/svg">
<path d="M11.579 11.556C14.2178 11.556 16.357 9.41682 16.357 6.778C16.357 4.13918 14.2178 2 11.579 2C8.94018 2 6.80099 4.13918 6.80099 6.778C6.80099 9.41682 8.94018 11.556 11.579 11.556Z" stroke="#787878" stroke-width="1.5" stroke-miterlimit="10" stroke-linecap="round" stroke-linejoin="round"/>
<path d="M4 18.201C3.99885 17.8652 4.07408 17.5335 4.22 17.231C4.55212 16.7805 4.97417 16.4039 5.45943 16.1251C5.94468 15.8462 6.48256 15.6711 7.039 15.611C7.81136 15.4474 8.5943 15.3384 9.382 15.285C10.8409 15.1568 12.3081 15.1568 13.767 15.285C14.5547 15.3404 15.3376 15.4506 16.11 15.615C17.181 15.835 18.472 16.274 18.929 17.235C19.0739 17.5396 19.1491 17.8727 19.1491 18.21C19.1491 18.5473 19.0739 18.8804 18.929 19.185C18.471 20.146 17.181 20.585 16.11 20.796C15.3386 20.9677 14.5554 21.0811 13.767 21.135C12.5806 21.2339 11.3887 21.2506 10.2 21.185C9.92717 21.1941 9.65413 21.1756 9.385 21.13C8.59949 21.0767 7.8192 20.9634 7.051 20.791C5.968 20.585 4.687 20.142 4.22 19.185C4.07412 18.8775 3.99894 18.5413 4 18.201V18.201Z" stroke="#CFCFCF" stroke-width="1.5" stroke-miterlimit="10" stroke-linecap="round" stroke-linejoin="round"/>
</svg>
