<svg width="24" height="24" viewBox="0 0 24 24" fill="none" xmlns="http://www.w3.org/2000/svg">
<path d="M18.865 5.12403C19.0776 5.1985 19.2619 5.33706 19.3924 5.52064C19.523 5.70421 19.5934 5.92376 19.594 6.14903V12.922C19.5952 14.7953 18.9206 16.6062 17.694 18.022C17.0688 18.7163 16.3236 19.2922 15.494 19.722L11.928 21.649L8.364 19.721C7.53153 19.2921 6.7835 18.7162 6.156 18.021C4.92739 16.6059 4.25061 14.7951 4.25 12.921L4.25 6.14903C4.25057 5.92376 4.32099 5.70421 4.45156 5.52064C4.58212 5.33706 4.7664 5.1985 4.979 5.12403L11.561 2.81103C11.7947 2.72901 12.0493 2.72901 12.283 2.81103L18.865 5.12403Z" stroke="#323C45" stroke-width="1.5" stroke-miterlimit="10" stroke-linecap="round" stroke-linejoin="round"/>
<path d="M9.323 11.918L11.215 13.813L15.113 9.91302" stroke="#9F99A9" stroke-width="1.5" stroke-miterlimit="10" stroke-linecap="round" stroke-linejoin="round"/>
</svg>
