<svg width="27" height="28" viewBox="0 0 27 28" fill="none" xmlns="http://www.w3.org/2000/svg">
<path d="M15.2167 27.0654C15.3558 26.7297 15.1965 26.3447 14.8608 26.2056C14.5251 26.0664 14.1401 26.2258 14.001 26.5615C13.8618 26.8972 14.0212 27.2821 14.3569 27.4213C14.6926 27.5604 15.0775 27.4011 15.2167 27.0654Z" fill="#6A2BC2"/>
<path d="M2.75801 16.3303C2.92613 16.3303 3.09046 16.2804 3.23024 16.187C3.37002 16.0936 3.47897 15.9608 3.5433 15.8055C3.60764 15.6502 3.62447 15.4793 3.59167 15.3144C3.55888 15.1495 3.47793 14.9981 3.35905 14.8792C3.24018 14.7603 3.08873 14.6794 2.92384 14.6466C2.75896 14.6138 2.58804 14.6306 2.43272 14.695C2.27741 14.7593 2.14467 14.8682 2.05127 15.008C1.95787 15.1478 1.90802 15.3121 1.90802 15.4802C1.90802 15.7057 1.99756 15.9219 2.15697 16.0813C2.31637 16.2407 2.53258 16.3303 2.75801 16.3303Z" fill="#6A2BC2"/>
<path d="M2.33301 12.7383C2.41706 12.7383 2.49923 12.7134 2.56912 12.6667C2.63901 12.62 2.69349 12.5536 2.72566 12.476C2.75783 12.3983 2.76625 12.3128 2.74985 12.2304C2.73345 12.148 2.69297 12.0722 2.63353 12.0128C2.57409 11.9534 2.49837 11.9129 2.41592 11.8965C2.33348 11.8801 2.24802 11.8885 2.17036 11.9207C2.09271 11.9528 2.02634 12.0073 1.97964 12.0772C1.93295 12.1471 1.90802 12.2293 1.90802 12.3133C1.90802 12.3691 1.91901 12.4244 1.94037 12.476C1.96173 12.5275 1.99302 12.5744 2.03249 12.6138C2.07195 12.6533 2.1188 12.6846 2.17036 12.706C2.22193 12.7273 2.2772 12.7383 2.33301 12.7383Z" fill="#6A2BC2"/>
<path d="M20.62 14.2633L17.844 11.4873L13.944 18.3113L15.544 22.3503C15.7769 22.5833 16.0671 22.7508 16.3853 22.836C16.7035 22.9212 17.0385 22.9212 17.3567 22.8358C17.6748 22.7505 17.9649 22.5829 18.1978 22.3498C18.4306 22.1168 18.5979 21.8266 18.683 21.5083L20.62 14.2633Z" fill="#8757F3"/>
<path d="M15.702 22.4933C15.8308 22.5994 15.9964 22.65 16.1624 22.6339C16.3285 22.6179 16.4814 22.5366 16.5875 22.4078C16.6936 22.279 16.7442 22.1134 16.7281 21.9473C16.7121 21.7813 16.6307 21.6284 16.502 21.5223C16.48 21.5023 16.4583 21.4813 16.437 21.4593C16.3317 21.3535 16.2523 21.2248 16.2049 21.0832C16.1576 20.9417 16.1436 20.7911 16.1642 20.6432C16.1847 20.4953 16.2391 20.3543 16.3232 20.2309C16.4073 20.1076 16.5188 20.0054 16.649 19.9323L16.69 19.9083C17.6007 19.3835 18.3984 18.6836 19.0372 17.849C19.676 17.0143 20.1433 16.0614 20.412 15.0453L20.621 14.2633L17.845 11.4873L12.155 17.1773L11.263 18.0693L14.156 20.9623L15.542 22.3513C15.592 22.4015 15.6447 22.4489 15.7 22.4933H15.702Z" fill="#6A2BC2"/>
<path d="M12.157 5.80029L14.933 8.57629L7.63301 11.4873L4.07001 10.8763C3.83706 10.6434 3.66955 10.3532 3.58432 10.035C3.49909 9.71684 3.49916 9.3818 3.5845 9.06364C3.66985 8.74547 3.83746 8.45538 4.0705 8.22255C4.30353 7.98972 4.59376 7.82236 4.912 7.7373L12.157 5.80029Z" fill="#8757F3"/>
<path d="M3.927 10.7183C3.82091 10.5896 3.77033 10.4239 3.78636 10.2579C3.8024 10.0918 3.88375 9.9389 4.01251 9.83282C4.14127 9.72673 4.3069 9.67614 4.47296 9.69218C4.63902 9.70821 4.79192 9.78956 4.89801 9.91832C4.91801 9.94032 4.93901 9.96198 4.96101 9.98331C5.0668 10.0886 5.19549 10.1681 5.33707 10.2154C5.47864 10.2627 5.62924 10.2767 5.7771 10.2561C5.92496 10.2356 6.06607 10.1812 6.18939 10.0971C6.31272 10.013 6.41491 9.90147 6.48801 9.77132L6.51201 9.73032C7.0368 8.81965 7.7367 8.0219 8.57135 7.38308C9.406 6.74426 10.3589 6.27702 11.375 6.00832L12.157 5.79932L14.933 8.57532L9.24301 14.2653L8.35101 15.1573L5.45801 12.2603L4.07001 10.8723C4.01956 10.8236 3.97182 10.7722 3.927 10.7183Z" fill="#6A2BC2"/>
<path d="M19.703 16.0223C15.011 20.7143 11.22 20.3693 8.66999 17.8223C6.11999 15.2753 6.57 12.9003 11.262 8.20825C15.954 3.51625 23.11 -1.71975 25.662 0.831254C28.214 3.38225 24.395 11.3223 19.703 16.0223Z" fill="#FEC502"/>
<path d="M19.962 7.95329C19.7646 7.62451 19.523 7.32437 19.244 7.06129C19.0906 6.92013 18.9895 6.73114 18.9573 6.52515C18.9251 6.31916 18.9637 6.10834 19.0667 5.92709C19.1698 5.74584 19.3312 5.60487 19.5247 5.52717C19.7181 5.44948 19.9322 5.43965 20.132 5.49929C20.7205 5.68559 21.2556 6.01074 21.692 6.44729L21.764 6.51929C22.0925 6.84856 22.5021 7.08515 22.9515 7.20507C23.4008 7.32499 23.8739 7.32399 24.3227 7.20216C24.7715 7.08033 25.1802 6.84201 25.5073 6.51135C25.8343 6.18069 26.0681 5.76944 26.185 5.31929C26.6583 3.99137 26.5919 2.53078 26 1.25129C24.46 -1.21071 19.882 0.495291 17.3 1.82329L17.145 1.90429C14.6923 3.19605 12.4417 4.8398 10.465 6.78329C5.77302 11.4753 6.11801 15.2663 8.66501 17.8173C9.07185 18.2288 9.52876 18.5876 10.025 18.8853C9.53851 18.0477 9.27002 17.1014 9.24416 16.1332C9.2183 15.1649 9.4359 14.2056 9.877 13.3433C10.0293 13.0004 10.2637 12.7003 10.5595 12.4695C10.8553 12.2386 11.2033 12.0841 11.5729 12.0196C11.9425 11.955 12.3223 11.9825 12.6788 12.0994C13.0353 12.2164 13.3575 12.4193 13.617 12.6903L13.703 12.7793C14.1254 13.2011 14.6372 13.5226 15.2005 13.72C15.7639 13.9174 16.3644 13.9857 16.9577 13.9199C17.551 13.854 18.1219 13.6557 18.6282 13.3395C19.1346 13.0234 19.5634 12.5975 19.883 12.0933C20.2808 11.4795 20.4985 10.7665 20.5114 10.0352C20.5243 9.30395 20.3319 8.58371 19.956 7.95629L19.962 7.95329Z" fill="#F09A06"/>
<path d="M25.141 8.20125C26.57 5.08125 27.021 2.18425 25.661 0.823255C24.301 -0.537745 22.313 0.823255 19.194 2.25325L25.141 8.20125Z" fill="#8757F3"/>
<path d="M24.09 5.92325L23.19 5.02325C23.0122 4.84543 22.8833 4.62469 22.8158 4.38241C22.7483 4.14013 22.7446 3.88454 22.805 3.64039C22.8653 3.39625 22.9877 3.17184 23.1603 2.9889C23.3329 2.80597 23.5498 2.67071 23.79 2.59625C24.2583 2.44853 24.7352 2.32931 25.218 2.23925C25.3676 2.21244 25.5071 2.14545 25.6216 2.04545C25.736 1.94545 25.8211 1.81621 25.8677 1.67156C25.9144 1.52691 25.9208 1.3723 25.8863 1.22428C25.8518 1.07626 25.7778 0.940399 25.672 0.831249L25.662 0.821249C24.301 -0.539751 21.404 -0.0877509 18.284 1.34125L24.09 7.14725C24.2519 6.98474 24.3429 6.76467 24.3429 6.53525C24.3429 6.30583 24.2519 6.08576 24.09 5.92325Z" fill="#6A2BC2"/>
<path d="M17.165 13.2963C19.362 13.2963 21.143 11.5153 21.143 9.31833C21.143 7.12134 19.362 5.34033 17.165 5.34033C14.968 5.34033 13.187 7.12134 13.187 9.31833C13.187 11.5153 14.968 13.2963 17.165 13.2963Z" fill="white"/>
<path d="M2.66499 26.9222L1.02999 27.1322C0.956302 27.1417 0.881422 27.1342 0.811105 27.1102C0.740788 27.0862 0.676903 27.0464 0.624368 26.9939C0.571832 26.9413 0.532039 26.8774 0.50805 26.8071C0.484061 26.7368 0.47652 26.6619 0.485993 26.5883L0.695992 24.9532C0.905742 23.3197 1.65132 21.8018 2.81599 20.6372C3.08947 20.3638 3.41413 20.1468 3.77145 19.9988C4.12876 19.8508 4.51174 19.7747 4.89849 19.7747C5.28525 19.7747 5.66821 19.8508 6.02553 19.9988C6.38284 20.1468 6.70751 20.3638 6.98099 20.6372C7.25447 20.9107 7.4714 21.2354 7.61941 21.5927C7.76741 21.95 7.84359 22.333 7.84359 22.7198C7.84359 23.1065 7.76741 23.4895 7.61941 23.8468C7.4714 24.2041 7.25447 24.5288 6.98099 24.8022C5.81646 25.9669 4.29856 26.7125 2.66499 26.9222Z" fill="#F5F0F0"/>
<path d="M2.89001 25.4573L0.631012 25.7473C0.631012 25.7473 2.354 20.9383 3.519 19.7743C3.519 19.7743 5.33801 18.0683 6.44101 18.6203C6.85829 18.8293 7.21997 19.1344 7.49628 19.5105C7.77259 19.8866 7.95563 20.323 8.03033 20.7837C8.10502 21.2443 8.06925 21.7162 7.92593 22.1603C7.78262 22.6044 7.53588 23.0082 7.20601 23.3383C6.04134 24.5026 4.52346 25.2479 2.89001 25.4573Z" fill="#FEC502"/>
<path d="M19.154 11.3082C18.6264 11.8357 17.911 12.132 17.165 12.132C16.419 12.132 15.7035 11.8357 15.176 11.3082C14.076 10.2082 14.567 9.06123 15.666 7.96323C16.627 7.00223 17.622 6.24924 18.714 6.97024C19.0623 7.2003 19.3551 7.50492 19.5712 7.86204C19.7873 8.21917 19.9213 8.61988 19.9635 9.03516C20.0057 9.45043 19.955 9.8699 19.8152 10.2632C19.6754 10.6565 19.4499 11.0138 19.155 11.3092L19.154 11.3082Z" fill="#00B7F0"/>
<path d="M6.961 14.8623L9.89196 17.7933L7.86185 19.8234L4.93089 16.8924L6.961 14.8623Z" fill="#6A2BC2"/>
<path d="M9.48202 21.4483L7.25501 19.2213C6.99825 18.9496 6.85756 18.5885 6.86284 18.2147C6.86813 17.8409 7.01897 17.4839 7.2833 17.2196C7.54764 16.9552 7.90463 16.8044 8.27842 16.7991C8.65221 16.7938 9.01331 16.9345 9.28501 17.1913L11.512 19.4183L9.48202 21.4483Z" fill="#8757F3"/>
<path d="M17.235 10.8783C17.3471 10.7659 17.41 10.6136 17.41 10.4548C17.41 10.2961 17.3471 10.1438 17.235 10.0313L16.382 9.17833C16.2909 9.08847 16.2381 8.96673 16.235 8.83876C16.2318 8.71079 16.2784 8.58659 16.365 8.49232L16.38 8.47633C16.4258 8.43013 16.4804 8.39345 16.5404 8.36843C16.6005 8.34341 16.6649 8.33053 16.73 8.33053C16.7951 8.33053 16.8595 8.34341 16.9196 8.36843C16.9797 8.39345 17.0342 8.43013 17.08 8.47633L17.338 8.73433C17.4458 8.84507 17.5914 8.91094 17.7458 8.91873C17.9001 8.92652 18.0516 8.87565 18.17 8.77633C18.2315 8.72223 18.2813 8.6561 18.3163 8.58202C18.3513 8.50794 18.3708 8.42748 18.3735 8.3456C18.3763 8.26371 18.3622 8.18213 18.3322 8.1059C18.3021 8.02966 18.2568 7.96038 18.199 7.90233C18.1739 7.8784 18.1565 7.84751 18.149 7.81363C18.1416 7.77974 18.1445 7.74441 18.1573 7.71217C18.17 7.67992 18.1922 7.65223 18.2208 7.63266C18.2495 7.61309 18.2833 7.60252 18.318 7.60232H18.334C18.4213 7.59973 18.5054 7.56862 18.5733 7.51377C18.6413 7.45892 18.6894 7.38332 18.7104 7.29854C18.7314 7.21375 18.724 7.12444 18.6895 7.04423C18.6549 6.96402 18.595 6.89732 18.519 6.85432C17.9012 6.5144 17.1784 6.41888 16.4935 6.58668C15.8086 6.75447 15.2118 7.17335 14.8211 7.76034C14.4304 8.34734 14.2745 9.05965 14.3841 9.75619C14.4937 10.4527 14.861 11.0827 15.413 11.5213C15.4482 11.5495 15.4916 11.5656 15.5367 11.5671C15.5817 11.5686 15.626 11.5555 15.6631 11.5297C15.7001 11.504 15.7277 11.4669 15.742 11.4241C15.7562 11.3814 15.7562 11.3351 15.742 11.2923L15.736 11.2743C15.7088 11.191 15.7104 11.101 15.7404 11.0187C15.7705 10.9364 15.8274 10.8666 15.9019 10.8205C15.9763 10.7744 16.0642 10.7546 16.1512 10.7644C16.2383 10.7741 16.3196 10.8129 16.382 10.8743C16.4945 10.9864 16.6468 11.0493 16.8055 11.0493C16.9643 11.0493 17.1165 10.9864 17.229 10.8743L17.235 10.8783Z" fill="#0091C8"/>
<path d="M3.04101 19.1723C1.8764 20.3368 1.13083 21.8547 0.921005 23.4883L0.631012 25.7473C0.851901 25.7189 1.05726 25.6185 1.21528 25.4616C1.37329 25.3046 1.47513 25.1 1.505 24.8793C1.54686 24.5565 1.61 24.2368 1.69401 23.9223C1.72297 23.8122 1.78045 23.7118 1.86063 23.631C1.94082 23.5503 2.04088 23.4921 2.15073 23.4624C2.26057 23.4327 2.37631 23.4325 2.48627 23.4618C2.59622 23.4911 2.69651 23.5488 2.77701 23.6293L3.12801 23.9803C3.26141 24.1137 3.44235 24.1886 3.63101 24.1886C3.81967 24.1886 4.00061 24.1137 4.13401 23.9803C4.26741 23.8469 4.34236 23.6659 4.34236 23.4773C4.34236 23.2886 4.26741 23.1077 4.13401 22.9743L3.17601 22.0163C3.05774 21.8988 2.98757 21.7414 2.97925 21.575C2.97092 21.4085 3.02505 21.2449 3.13101 21.1163V21.1103C3.18967 21.0384 3.26275 20.9796 3.34554 20.9378C3.42832 20.896 3.51897 20.872 3.61162 20.8673C3.70427 20.8627 3.79685 20.8776 3.88339 20.911C3.96993 20.9444 4.04849 20.9956 4.11401 21.0613L4.44301 21.3903C4.57641 21.5237 4.75735 21.5986 4.94601 21.5986C5.13467 21.5986 5.3156 21.5237 5.44901 21.3903C5.58241 21.2569 5.65736 21.0759 5.65736 20.8873C5.65736 20.6986 5.58241 20.5177 5.44901 20.3843C5.39518 20.3282 5.35884 20.2577 5.34443 20.1814C5.33002 20.105 5.33816 20.0261 5.36786 19.9543C5.39756 19.8825 5.44752 19.8209 5.51166 19.777C5.57579 19.7332 5.65132 19.7089 5.72901 19.7073H5.76401C5.92038 19.7132 6.07361 19.6623 6.19531 19.5639C6.31701 19.4656 6.39895 19.3264 6.42592 19.1723C6.45289 19.0181 6.42308 18.8594 6.34201 18.7255C6.26094 18.5917 6.13411 18.4918 5.98501 18.4443C5.4749 18.2821 4.92987 18.2643 4.41026 18.3928C3.89065 18.5213 3.41674 18.791 3.04101 19.1723Z" fill="#FFA50A"/>
<path d="M12.691 27.0633C13.0544 27.0633 13.349 26.7687 13.349 26.4053C13.349 26.0419 13.0544 25.7473 12.691 25.7473C12.3276 25.7473 12.033 26.0419 12.033 26.4053C12.033 26.7687 12.3276 27.0633 12.691 27.0633Z" fill="white"/>
<path d="M15.274 27.0643C15.4905 27.0643 15.666 26.8888 15.666 26.6723C15.666 26.4558 15.4905 26.2803 15.274 26.2803C15.0575 26.2803 14.882 26.4558 14.882 26.6723C14.882 26.8888 15.0575 27.0643 15.274 27.0643Z" fill="white"/>
<path d="M0.85 15.9292C1.31944 15.9292 1.7 15.5487 1.7 15.0792C1.7 14.6098 1.31944 14.2292 0.85 14.2292C0.380558 14.2292 0 14.6098 0 15.0792C0 15.5487 0.380558 15.9292 0.85 15.9292Z" fill="white"/>
<path d="M0.425 12.3373C0.659721 12.3373 0.85 12.147 0.85 11.9123C0.85 11.6776 0.659721 11.4873 0.425 11.4873C0.190279 11.4873 0 11.6776 0 11.9123C0 12.147 0.190279 12.3373 0.425 12.3373Z" fill="white"/>
</svg>
