<svg width="10" height="12" viewBox="0 0 10 12" fill="none" xmlns="http://www.w3.org/2000/svg">
<path d="M8.37733 8.22268C8.18472 8.21715 7.99292 8.24964 7.81287 8.31827C7.63282 8.3869 7.46806 8.49034 7.328 8.62268L3.48133 6.40401C3.5125 6.28115 3.5306 6.15534 3.53533 6.02868C3.5306 5.90201 3.5125 5.7762 3.48133 5.65334L7.27467 3.45334C7.54513 3.70583 7.89431 3.85746 8.26345 3.88271C8.63259 3.90797 8.99916 3.8053 9.30149 3.592C9.60382 3.37869 9.82345 3.06776 9.92344 2.71153C10.0234 2.35529 9.99765 1.97548 9.85046 1.63602C9.70328 1.29655 9.44366 1.01814 9.11529 0.847622C8.78692 0.677109 8.40983 0.624902 8.04749 0.699786C7.68514 0.774669 7.35965 0.972072 7.12577 1.25878C6.89189 1.54549 6.7639 1.90401 6.76333 2.27401C6.768 2.40068 6.7861 2.5265 6.81733 2.64934L3.024 4.84934C2.72349 4.57234 2.32936 4.41921 1.92067 4.42068C1.71089 4.42137 1.50332 4.4635 1.30988 4.54465C1.11644 4.62579 0.940926 4.74435 0.793432 4.89352C0.645938 5.04268 0.529365 5.21952 0.450408 5.41386C0.37145 5.60821 0.331663 5.81624 0.333333 6.02601C0.335983 6.33956 0.429573 6.6456 0.602746 6.90701C0.77592 7.16841 1.02123 7.37394 1.30893 7.49866C1.59662 7.62338 1.91432 7.66192 2.22349 7.60962C2.53266 7.55732 2.82001 7.41642 3.05067 7.20401L6.87133 9.42801C6.83815 9.54114 6.81999 9.65814 6.81733 9.77601C6.81601 10.085 6.90642 10.3874 7.0771 10.6449C7.24779 10.9024 7.49107 11.1035 7.77612 11.2226C8.06118 11.3418 8.37519 11.3736 8.67836 11.3142C8.98154 11.2547 9.26025 11.1066 9.47918 10.8886C9.69811 10.6706 9.84741 10.3925 9.90817 10.0896C9.96893 9.78669 9.93842 9.47255 9.82049 9.18699C9.70257 8.90142 9.50254 8.65729 9.24575 8.4855C8.98896 8.31372 8.68695 8.22201 8.378 8.22201L8.37733 8.22268Z" fill="#323C45"/>
</svg>
