<svg width="24" height="13" viewBox="0 0 24 13" fill="none" xmlns="http://www.w3.org/2000/svg">
<path d="M21.2227 5.09636C20.5432 2.19588 16.4881 1.31267 12.1293 1.04478C13.3628 2.72978 13.0941 5.20333 11.3398 6.54092H10.2808C11.5051 6.04678 12.397 4.8048 12.3702 3.32711C12.3167 0.405802 8.88113 -1.09745 6.79726 0.932129C6.02816 0.974727 5.36801 1.22274 4.89067 1.52851C3.86674 2.18263 3.26106 3.14819 3.09117 4.33243C3.09117 4.33337 3.09117 4.33337 3.09117 4.33337C2.59444 7.06157 2.46518 8.9075 1.29815 9.75662C0.570593 10.2858 0 10.3558 0 10.3558L0.334231 11.3829C0.334231 11.3829 3.56759 11.6802 5.83796 8.36886C6.29222 7.70622 6.97269 8.54967 7.58944 9.70645C8.05663 10.584 8.80357 12.1507 9.1378 12.8568C10.2827 12.8568 11.1829 12.8568 12.3398 12.8568L10.5864 9.03151C11.0943 9.33821 12.096 10.1154 13.9149 9.9327L13.9657 10.4619C13.1707 10.5414 12.3933 10.4486 11.7027 10.2138L12.9141 12.8559C13.6379 12.8559 14.5178 12.8559 15.3949 12.8559L16.3127 10.1485C16.5527 10.0728 16.7734 9.98098 16.9571 9.86927L15.9443 12.8559C17.4936 12.8559 18.9311 12.8559 19.3632 12.8559C19.9098 11.6262 21.2357 7.60304 21.3151 6.26924C22.3713 6.67439 23.6408 6.31467 24.0009 5.56968C23.5568 5.84988 21.8847 5.98525 21.2227 5.09636ZM4.5869 5.19292C4.37547 5.19292 4.20374 5.01684 4.20374 4.80006C4.20374 4.58329 4.37547 4.40721 4.5869 4.40721C4.79834 4.40721 4.97007 4.58329 4.97007 4.80006C4.97007 5.01684 4.79834 5.19292 4.5869 5.19292Z" fill="#00866A"/>
</svg>
