<svg width="24" height="24" viewBox="0 0 24 24" fill="none" xmlns="http://www.w3.org/2000/svg">
<path d="M15.8161 11.026L19.9161 7.67196C20.0627 7.55078 20.2409 7.47393 20.4297 7.45046C20.6185 7.42698 20.8101 7.45784 20.9819 7.53941C21.1538 7.62098 21.2988 7.74989 21.4 7.911C21.5012 8.0721 21.5543 8.25873 21.5531 8.44896V15.321C21.5543 15.5112 21.5012 15.6978 21.4 15.8589C21.2988 16.02 21.1538 16.1489 20.9819 16.2305C20.8101 16.3121 20.6185 16.3429 20.4297 16.3195C20.2409 16.296 20.0627 16.2191 19.9161 16.098L15.8161 12.744" stroke="#9F99A9" stroke-width="1.5" stroke-miterlimit="10" stroke-linecap="round" stroke-linejoin="round"/>
<path d="M15.8161 15.3699C15.8357 15.8329 15.7568 16.2947 15.5845 16.7248C15.4122 17.1549 15.1506 17.5436 14.8169 17.865C14.4832 18.1864 14.085 18.4333 13.6487 18.5893C13.2124 18.7453 12.748 18.8069 12.2861 18.7699H6.0691C5.60787 18.8064 5.14415 18.7444 4.70868 18.5881C4.27322 18.4317 3.87595 18.1846 3.54321 17.8632C3.21048 17.5417 2.94986 17.1531 2.77865 16.7233C2.60744 16.2935 2.52953 15.8322 2.5501 15.3699V8.40994C2.52953 7.94632 2.60772 7.48362 2.7795 7.05251C2.95128 6.62139 3.21271 6.23171 3.54649 5.90928C3.88027 5.58685 4.27876 5.33904 4.71555 5.18227C5.15235 5.0255 5.61747 4.96335 6.0801 4.99994H12.2861C12.7486 4.96417 13.2133 5.02688 13.6498 5.18395C14.0862 5.34101 14.4843 5.58885 14.8179 5.91111C15.1515 6.23337 15.413 6.62272 15.5851 7.05346C15.7571 7.4842 15.8359 7.94653 15.8161 8.40994V15.3699Z" stroke="#323C45" stroke-width="1.5" stroke-miterlimit="10" stroke-linecap="round" stroke-linejoin="round"/>
</svg>
